<?xml version="1.0" encoding="UTF-8" standalone="no"?>
<!-- Created with Inkscape (http://www.inkscape.org/) -->

<svg
   xmlns:dc="http://purl.org/dc/elements/1.1/"
   xmlns:cc="http://creativecommons.org/ns#"
   xmlns:rdf="http://www.w3.org/1999/02/22-rdf-syntax-ns#"
   xmlns:svg="http://www.w3.org/2000/svg"
   xmlns="http://www.w3.org/2000/svg"
   xmlns:xlink="http://www.w3.org/1999/xlink"
   xmlns:sodipodi="http://sodipodi.sourceforge.net/DTD/sodipodi-0.dtd"
   xmlns:inkscape="http://www.inkscape.org/namespaces/inkscape"
   id="svg2985"
   version="1.1"
   inkscape:version="0.48.3.1 r9886"
   width="177.26234"
   height="252.08533"
   xml:space="preserve"
   sodipodi:docname="perceptron_maths.pdf"><metadata
     id="metadata2991"><rdf:RDF><cc:Work
         rdf:about=""><dc:format>image/svg+xml</dc:format><dc:type
           rdf:resource="http://purl.org/dc/dcmitype/StillImage" /><dc:title></dc:title></cc:Work></rdf:RDF></metadata><defs
     id="defs2989"><linearGradient
       inkscape:collect="always"
       id="linearGradient4093"><stop
         style="stop-color:#b53a3a;stop-opacity:1;"
         offset="0"
         id="stop4095" /><stop
         style="stop-color:#b53a3a;stop-opacity:0;"
         offset="1"
         id="stop4097" /></linearGradient><linearGradient
       inkscape:collect="always"
       xlink:href="#linearGradient4093"
       id="linearGradient4099"
       x1="56.453251"
       y1="-184.50116"
       x2="79.25325"
       y2="-184.50116"
       gradientUnits="userSpaceOnUse" /></defs><sodipodi:namedview
     pagecolor="#ffffff"
     bordercolor="#666666"
     borderopacity="1"
     objecttolerance="10"
     gridtolerance="10"
     guidetolerance="10"
     inkscape:pageopacity="0"
     inkscape:pageshadow="2"
     inkscape:window-width="1680"
     inkscape:window-height="976"
     id="namedview2987"
     showgrid="true"
     inkscape:snap-global="false"
     inkscape:zoom="2.2697419"
     inkscape:cx="35.684454"
     inkscape:cy="86.401535"
     inkscape:window-x="1280"
     inkscape:window-y="25"
     inkscape:window-maximized="1"
     inkscape:current-layer="g2993"
     showguides="true"
     inkscape:guide-bbox="true"
     fit-margin-top="0"
     fit-margin-left="0"
     fit-margin-right="0"
     fit-margin-bottom="0"><inkscape:grid
       type="xygrid"
       id="grid3307"
       empspacing="5"
       visible="true"
       enabled="true"
       snapvisiblegridlinesonly="true"
       originx="-117.77258px"
       originy="-88.316316px" /></sodipodi:namedview><g
     id="g2993"
     inkscape:groupmode="layer"
     inkscape:label="3-layer"
     transform="matrix(1.25,0,0,-1.25,-117.77258,340.40166)"><path
   d="m 141.57,94.454 c 0,0.121 0,0.246 -0.004,0.371 0,0.122 -0.004,0.247 -0.007,0.368 -0.004,0.125 -0.008,0.246 -0.016,0.371 -0.004,0.121 -0.012,0.246 -0.02,0.367 -0.007,0.125 -0.015,0.246 -0.023,0.371 -0.012,0.121 -0.023,0.246 -0.035,0.367 -0.012,0.125 -0.024,0.246 -0.035,0.367 -0.016,0.125 -0.032,0.246 -0.043,0.368 -0.016,0.125 -0.035,0.246 -0.051,0.367 -0.02,0.125 -0.035,0.246 -0.055,0.367 -0.019,0.121 -0.039,0.242 -0.062,0.363 -0.02,0.125 -0.043,0.246 -0.067,0.367 -0.023,0.122 -0.047,0.243 -0.07,0.36 -0.027,0.121 -0.051,0.242 -0.078,0.363 -0.027,0.121 -0.055,0.242 -0.082,0.359 -0.031,0.122 -0.059,0.243 -0.09,0.36 -0.031,0.121 -0.062,0.238 -0.094,0.359 -0.035,0.117 -0.066,0.238 -0.101,0.356 -0.035,0.117 -0.071,0.234 -0.106,0.355 -0.039,0.117 -0.074,0.234 -0.113,0.352 -0.039,0.117 -0.078,0.234 -0.117,0.351 -0.039,0.117 -0.082,0.231 -0.121,0.348 -0.043,0.117 -0.086,0.23 -0.129,0.348 -0.043,0.117 -0.09,0.23 -0.133,0.343 -0.047,0.118 -0.094,0.231 -0.141,0.344 -0.047,0.113 -0.093,0.227 -0.144,0.34 -0.047,0.113 -0.098,0.226 -0.149,0.34 -0.05,0.113 -0.101,0.222 -0.156,0.336 -0.051,0.109 -0.105,0.222 -0.16,0.332 -0.051,0.113 -0.109,0.222 -0.164,0.332 -0.055,0.109 -0.113,0.218 -0.172,0.328 -0.059,0.109 -0.113,0.219 -0.176,0.324 -0.058,0.109 -0.117,0.219 -0.179,0.324 -0.063,0.106 -0.122,0.215 -0.184,0.321 -0.066,0.105 -0.129,0.211 -0.191,0.316 -0.067,0.105 -0.133,0.211 -0.196,0.313 -0.066,0.105 -0.136,0.21 -0.203,0.312 -0.066,0.102 -0.137,0.207 -0.203,0.309 -0.07,0.101 -0.141,0.203 -0.211,0.304 -0.07,0.098 -0.144,0.2 -0.215,0.301 -0.074,0.098 -0.148,0.199 -0.222,0.297 -0.071,0.098 -0.149,0.195 -0.223,0.293 -0.074,0.098 -0.152,0.195 -0.231,0.293 -0.074,0.094 -0.152,0.191 -0.23,0.285 -0.082,0.094 -0.16,0.188 -0.238,0.281 -0.082,0.094 -0.164,0.188 -0.246,0.282 -0.079,0.093 -0.164,0.183 -0.246,0.277 -0.083,0.09 -0.165,0.18 -0.25,0.269 -0.086,0.09 -0.168,0.18 -0.254,0.27 -0.086,0.086 -0.172,0.176 -0.262,0.262 -0.086,0.086 -0.176,0.175 -0.262,0.261 -0.09,0.086 -0.18,0.168 -0.269,0.254 -0.09,0.086 -0.18,0.168 -0.27,0.25 -0.094,0.082 -0.183,0.164 -0.277,0.246 -0.094,0.082 -0.184,0.164 -0.282,0.243 -0.089,0.082 -0.187,0.16 -0.281,0.238 -0.093,0.082 -0.191,0.156 -0.285,0.234 -0.098,0.078 -0.195,0.153 -0.293,0.231 -0.098,0.074 -0.195,0.148 -0.293,0.222 -0.098,0.075 -0.199,0.149 -0.297,0.223 -0.101,0.07 -0.199,0.141 -0.301,0.215 -0.101,0.07 -0.203,0.14 -0.304,0.207 -0.102,0.07 -0.207,0.141 -0.309,0.207 -0.101,0.066 -0.207,0.137 -0.312,0.199 -0.102,0.067 -0.207,0.133 -0.313,0.199 -0.105,0.063 -0.211,0.125 -0.316,0.188 -0.106,0.062 -0.211,0.125 -0.32,0.187 -0.106,0.063 -0.215,0.121 -0.321,0.18 -0.109,0.059 -0.219,0.117 -0.328,0.176 -0.109,0.058 -0.219,0.117 -0.328,0.172 -0.109,0.054 -0.219,0.109 -0.332,0.164 -0.109,0.054 -0.219,0.109 -0.332,0.16 -0.113,0.055 -0.223,0.105 -0.336,0.156 -0.113,0.051 -0.223,0.102 -0.34,0.149 -0.113,0.05 -0.226,0.097 -0.34,0.144 -0.113,0.047 -0.226,0.094 -0.343,0.141 -0.114,0.043 -0.227,0.09 -0.344,0.133 -0.117,0.043 -0.231,0.086 -0.348,0.128 -0.113,0.04 -0.23,0.083 -0.348,0.122 -0.117,0.039 -0.234,0.078 -0.351,0.117 -0.117,0.039 -0.235,0.074 -0.352,0.109 -0.117,0.039 -0.238,0.074 -0.355,0.11 -0.117,0.031 -0.238,0.066 -0.356,0.097 -0.117,0.035 -0.238,0.067 -0.359,0.098 -0.117,0.027 -0.238,0.058 -0.359,0.086 -0.118,0.031 -0.239,0.058 -0.36,0.086 -0.121,0.027 -0.238,0.051 -0.359,0.078 -0.121,0.023 -0.242,0.047 -0.363,0.07 -0.122,0.024 -0.243,0.047 -0.364,0.067 -0.125,0.023 -0.246,0.043 -0.367,0.062 -0.121,0.02 -0.242,0.035 -0.367,0.055 -0.121,0.015 -0.242,0.035 -0.363,0.047 -0.125,0.015 -0.246,0.031 -0.368,0.046 -0.125,0.012 -0.246,0.024 -0.371,0.036 -0.121,0.011 -0.246,0.023 -0.367,0.031 -0.121,0.012 -0.246,0.019 -0.367,0.027 -0.125,0.008 -0.25,0.016 -0.371,0.02 -0.125,0.008 -0.246,0.012 -0.371,0.015 -0.121,0.004 -0.246,0.008 -0.367,0.008 -0.125,0.004 -0.246,0.004 -0.371,0.004 -0.125,0 -0.247,0 -0.372,-0.004 -0.121,0 -0.246,-0.004 -0.367,-0.008 -0.125,-0.003 -0.25,-0.007 -0.371,-0.015 -0.125,-0.004 -0.246,-0.012 -0.371,-0.02 -0.121,-0.008 -0.246,-0.015 -0.367,-0.027 -0.125,-0.008 -0.246,-0.02 -0.367,-0.031 -0.125,-0.012 -0.246,-0.024 -0.371,-0.036 -0.122,-0.015 -0.243,-0.031 -0.368,-0.046 -0.121,-0.012 -0.242,-0.032 -0.367,-0.047 -0.121,-0.02 -0.242,-0.035 -0.363,-0.055 -0.121,-0.019 -0.246,-0.039 -0.367,-0.062 -0.121,-0.02 -0.242,-0.043 -0.364,-0.067 -0.121,-0.023 -0.242,-0.047 -0.363,-0.07 -0.121,-0.027 -0.238,-0.051 -0.359,-0.078 -0.121,-0.028 -0.242,-0.055 -0.363,-0.086 -0.118,-0.028 -0.239,-0.059 -0.356,-0.086 -0.121,-0.031 -0.242,-0.063 -0.359,-0.098 -0.117,-0.031 -0.239,-0.066 -0.356,-0.097 -0.117,-0.036 -0.238,-0.071 -0.355,-0.11 -0.117,-0.035 -0.235,-0.07 -0.352,-0.109 -0.117,-0.039 -0.234,-0.078 -0.351,-0.117 -0.118,-0.039 -0.235,-0.082 -0.348,-0.122 -0.117,-0.042 -0.234,-0.085 -0.348,-0.128 -0.117,-0.043 -0.23,-0.09 -0.347,-0.133 -0.114,-0.047 -0.227,-0.094 -0.34,-0.141 -0.113,-0.047 -0.231,-0.094 -0.344,-0.144 -0.109,-0.047 -0.223,-0.098 -0.336,-0.149 -0.113,-0.051 -0.226,-0.101 -0.336,-0.156 -0.113,-0.051 -0.222,-0.106 -0.336,-0.16 -0.109,-0.055 -0.218,-0.11 -0.328,-0.164 -0.109,-0.055 -0.219,-0.114 -0.328,-0.172 -0.109,-0.059 -0.219,-0.117 -0.328,-0.176 -0.106,-0.059 -0.215,-0.117 -0.32,-0.18 -0.11,-0.062 -0.215,-0.125 -0.321,-0.187 -0.105,-0.063 -0.211,-0.125 -0.316,-0.188 -0.106,-0.066 -0.211,-0.132 -0.317,-0.199 -0.101,-0.062 -0.207,-0.133 -0.308,-0.199 -0.106,-0.066 -0.207,-0.137 -0.309,-0.207 -0.101,-0.067 -0.203,-0.137 -0.304,-0.207 -0.102,-0.074 -0.2,-0.145 -0.301,-0.215 -0.098,-0.074 -0.199,-0.148 -0.297,-0.223 -0.098,-0.074 -0.195,-0.148 -0.293,-0.222 -0.098,-0.078 -0.195,-0.153 -0.293,-0.231 -0.094,-0.078 -0.191,-0.152 -0.285,-0.234 -0.098,-0.078 -0.192,-0.156 -0.285,-0.238 -0.094,-0.079 -0.188,-0.161 -0.278,-0.243 -0.093,-0.082 -0.183,-0.164 -0.277,-0.246 -0.09,-0.082 -0.18,-0.164 -0.27,-0.25 -0.089,-0.086 -0.179,-0.168 -0.269,-0.254 -0.09,-0.086 -0.176,-0.175 -0.262,-0.261 -0.09,-0.086 -0.176,-0.176 -0.262,-0.262 -0.085,-0.09 -0.171,-0.18 -0.253,-0.27 -0.086,-0.089 -0.168,-0.179 -0.25,-0.269 -0.086,-0.094 -0.168,-0.184 -0.25,-0.277 -0.079,-0.094 -0.161,-0.188 -0.243,-0.282 -0.078,-0.093 -0.16,-0.187 -0.238,-0.281 -0.078,-0.094 -0.156,-0.191 -0.23,-0.285 -0.079,-0.098 -0.157,-0.195 -0.231,-0.293 -0.074,-0.098 -0.152,-0.195 -0.222,-0.293 -0.075,-0.098 -0.149,-0.199 -0.223,-0.297 -0.07,-0.101 -0.145,-0.203 -0.215,-0.301 -0.07,-0.101 -0.141,-0.203 -0.211,-0.304 -0.066,-0.102 -0.137,-0.207 -0.203,-0.309 -0.07,-0.102 -0.137,-0.207 -0.203,-0.312 -0.067,-0.102 -0.129,-0.208 -0.195,-0.313 -0.063,-0.105 -0.129,-0.211 -0.192,-0.316 -0.062,-0.106 -0.125,-0.215 -0.184,-0.321 -0.062,-0.105 -0.121,-0.215 -0.179,-0.324 -0.063,-0.105 -0.121,-0.215 -0.176,-0.324 -0.059,-0.11 -0.117,-0.219 -0.172,-0.328 -0.055,-0.11 -0.113,-0.219 -0.164,-0.332 -0.055,-0.11 -0.109,-0.223 -0.16,-0.332 -0.055,-0.114 -0.106,-0.223 -0.156,-0.336 -0.051,-0.114 -0.102,-0.227 -0.149,-0.34 -0.051,-0.113 -0.097,-0.227 -0.144,-0.34 -0.047,-0.113 -0.094,-0.226 -0.141,-0.344 -0.043,-0.113 -0.09,-0.226 -0.133,-0.343 -0.043,-0.118 -0.086,-0.231 -0.129,-0.348 -0.039,-0.117 -0.082,-0.231 -0.121,-0.348 -0.039,-0.117 -0.078,-0.234 -0.117,-0.351 -0.039,-0.118 -0.074,-0.235 -0.113,-0.352 -0.035,-0.121 -0.07,-0.238 -0.106,-0.355 -0.035,-0.118 -0.066,-0.239 -0.101,-0.356 -0.031,-0.121 -0.063,-0.238 -0.094,-0.359 -0.031,-0.117 -0.059,-0.238 -0.09,-0.36 C 95.09,99.833 95.062,99.712 95.035,99.591 95.008,99.47 94.98,99.349 94.957,99.228 94.934,99.111 94.906,98.99 94.887,98.868 94.863,98.747 94.84,98.626 94.82,98.501 94.797,98.38 94.777,98.259 94.758,98.138 94.738,98.017 94.719,97.896 94.703,97.771 94.684,97.65 94.668,97.529 94.652,97.404 94.637,97.282 94.625,97.161 94.609,97.036 94.598,96.915 94.582,96.794 94.574,96.669 94.562,96.548 94.551,96.423 94.539,96.302 94.531,96.177 94.523,96.056 94.516,95.931 94.508,95.81 94.5,95.685 94.492,95.564 94.488,95.439 94.484,95.318 94.48,95.193 94.477,95.072 94.473,94.947 94.473,94.825 94.469,94.7 94.469,94.575 94.469,94.454 c 0,-0.125 0,-0.246 0.004,-0.371 0,-0.121 0.004,-0.246 0.007,-0.371 0.004,-0.121 0.008,-0.246 0.012,-0.367 0.008,-0.125 0.016,-0.246 0.024,-0.371 0.007,-0.121 0.015,-0.246 0.023,-0.367 0.012,-0.125 0.023,-0.246 0.035,-0.371 0.008,-0.122 0.024,-0.243 0.035,-0.368 0.016,-0.121 0.028,-0.246 0.043,-0.367 0.016,-0.121 0.032,-0.242 0.051,-0.367 0.016,-0.121 0.035,-0.242 0.055,-0.363 0.019,-0.125 0.039,-0.246 0.062,-0.367 0.02,-0.122 0.043,-0.243 0.067,-0.364 0.019,-0.121 0.047,-0.242 0.07,-0.363 0.023,-0.121 0.051,-0.242 0.078,-0.359 0.027,-0.121 0.055,-0.243 0.082,-0.364 0.031,-0.117 0.059,-0.238 0.09,-0.359 0.031,-0.117 0.063,-0.238 0.094,-0.355 0.035,-0.122 0.066,-0.239 0.101,-0.356 0.036,-0.121 0.071,-0.238 0.106,-0.355 0.039,-0.118 0.074,-0.235 0.113,-0.352 0.039,-0.117 0.078,-0.234 0.117,-0.352 0.039,-0.117 0.082,-0.234 0.121,-0.347 0.043,-0.117 0.086,-0.235 0.129,-0.348 0.043,-0.117 0.09,-0.23 0.133,-0.348 0.047,-0.113 0.094,-0.226 0.141,-0.339 0.047,-0.118 0.093,-0.231 0.144,-0.344 0.047,-0.113 0.098,-0.223 0.149,-0.336 0.05,-0.113 0.101,-0.227 0.156,-0.336 0.051,-0.113 0.105,-0.223 0.16,-0.336 0.051,-0.109 0.109,-0.219 0.164,-0.328 0.055,-0.113 0.113,-0.223 0.172,-0.328 0.055,-0.11 0.113,-0.219 0.176,-0.328 0.058,-0.106 0.117,-0.215 0.179,-0.321 0.059,-0.109 0.122,-0.214 0.184,-0.32 0.063,-0.105 0.129,-0.211 0.192,-0.316 0.066,-0.106 0.128,-0.211 0.195,-0.317 0.066,-0.101 0.133,-0.207 0.203,-0.308 0.066,-0.106 0.137,-0.207 0.203,-0.309 0.07,-0.102 0.141,-0.203 0.211,-0.305 0.07,-0.101 0.145,-0.203 0.215,-0.3 0.074,-0.102 0.148,-0.2 0.223,-0.297 0.07,-0.098 0.148,-0.2 0.222,-0.293 0.074,-0.098 0.152,-0.196 0.231,-0.293 0.074,-0.098 0.152,-0.192 0.23,-0.285 0.078,-0.098 0.16,-0.192 0.238,-0.286 0.082,-0.093 0.164,-0.187 0.243,-0.277 0.082,-0.094 0.164,-0.187 0.25,-0.277 0.082,-0.09 0.164,-0.18 0.25,-0.27 0.082,-0.09 0.168,-0.179 0.253,-0.269 0.086,-0.09 0.172,-0.176 0.262,-0.262 0.086,-0.09 0.172,-0.176 0.262,-0.262 0.09,-0.086 0.18,-0.172 0.269,-0.254 0.09,-0.086 0.18,-0.168 0.27,-0.254 0.094,-0.082 0.184,-0.164 0.277,-0.246 0.09,-0.082 0.184,-0.16 0.278,-0.242 0.093,-0.078 0.187,-0.16 0.285,-0.238 0.094,-0.078 0.191,-0.156 0.285,-0.234 0.098,-0.075 0.195,-0.153 0.293,-0.227 0.098,-0.078 0.195,-0.152 0.293,-0.227 0.098,-0.074 0.199,-0.144 0.297,-0.218 0.101,-0.071 0.199,-0.145 0.301,-0.215 0.101,-0.071 0.203,-0.141 0.304,-0.211 0.102,-0.07 0.203,-0.137 0.309,-0.203 0.101,-0.071 0.207,-0.137 0.308,-0.203 0.106,-0.067 0.211,-0.129 0.317,-0.196 0.105,-0.062 0.211,-0.129 0.316,-0.191 0.106,-0.063 0.211,-0.125 0.321,-0.184 0.105,-0.062 0.214,-0.121 0.32,-0.183 0.109,-0.059 0.219,-0.117 0.328,-0.176 0.109,-0.055 0.219,-0.113 0.328,-0.168 0.11,-0.059 0.219,-0.113 0.328,-0.168 0.114,-0.051 0.223,-0.105 0.336,-0.16 0.11,-0.051 0.223,-0.102 0.336,-0.152 0.113,-0.051 0.227,-0.102 0.336,-0.153 0.113,-0.047 0.231,-0.094 0.344,-0.14 0.113,-0.051 0.226,-0.094 0.34,-0.141 0.117,-0.047 0.23,-0.09 0.347,-0.133 0.114,-0.043 0.231,-0.086 0.348,-0.129 0.113,-0.043 0.23,-0.082 0.348,-0.121 0.117,-0.043 0.234,-0.082 0.351,-0.117 0.117,-0.039 0.235,-0.078 0.352,-0.113 0.117,-0.036 0.238,-0.071 0.355,-0.106 0.117,-0.035 0.239,-0.066 0.356,-0.101 0.117,-0.032 0.238,-0.063 0.359,-0.094 0.117,-0.031 0.238,-0.059 0.356,-0.09 0.121,-0.027 0.242,-0.055 0.363,-0.082 0.121,-0.027 0.238,-0.055 0.359,-0.078 0.121,-0.024 0.242,-0.051 0.363,-0.074 0.122,-0.02 0.243,-0.043 0.364,-0.067 0.121,-0.019 0.246,-0.039 0.367,-0.058 0.121,-0.02 0.242,-0.039 0.363,-0.055 0.125,-0.02 0.246,-0.035 0.367,-0.051 0.125,-0.015 0.246,-0.027 0.368,-0.043 0.125,-0.012 0.246,-0.027 0.371,-0.039 0.121,-0.012 0.242,-0.019 0.367,-0.031 0.121,-0.008 0.246,-0.016 0.367,-0.024 0.125,-0.007 0.246,-0.015 0.371,-0.023 0.121,-0.004 0.246,-0.008 0.371,-0.012 0.121,-0.004 0.246,-0.008 0.367,-0.011 0.125,0 0.247,0 0.372,0 0.125,0 0.246,0 0.371,0 0.121,0.003 0.246,0.007 0.367,0.011 0.125,0.004 0.246,0.008 0.371,0.012 0.121,0.008 0.246,0.016 0.371,0.023 0.121,0.008 0.246,0.016 0.367,0.024 0.121,0.012 0.246,0.019 0.367,0.031 0.125,0.012 0.246,0.027 0.371,0.039 0.122,0.016 0.243,0.028 0.368,0.043 0.121,0.016 0.242,0.031 0.363,0.051 0.125,0.016 0.246,0.035 0.367,0.055 0.121,0.019 0.242,0.039 0.367,0.058 0.121,0.024 0.242,0.047 0.364,0.067 0.121,0.023 0.242,0.05 0.363,0.074 0.121,0.023 0.238,0.051 0.359,0.078 0.121,0.027 0.242,0.055 0.36,0.082 0.121,0.031 0.242,0.059 0.359,0.09 0.121,0.031 0.242,0.062 0.359,0.094 0.118,0.035 0.239,0.066 0.356,0.101 0.117,0.035 0.238,0.07 0.355,0.106 0.117,0.035 0.235,0.074 0.352,0.113 0.117,0.035 0.234,0.074 0.351,0.117 0.118,0.039 0.235,0.078 0.348,0.121 0.117,0.043 0.231,0.086 0.348,0.129 0.117,0.043 0.23,0.086 0.344,0.133 0.117,0.047 0.23,0.09 0.343,0.141 0.114,0.046 0.227,0.093 0.34,0.14 0.117,0.051 0.227,0.102 0.34,0.153 0.113,0.05 0.223,0.101 0.336,0.152 0.113,0.055 0.223,0.109 0.332,0.16 0.113,0.055 0.223,0.109 0.332,0.168 0.109,0.055 0.219,0.113 0.328,0.168 0.109,0.059 0.219,0.117 0.328,0.176 0.106,0.062 0.215,0.121 0.321,0.183 0.109,0.059 0.214,0.121 0.32,0.184 0.105,0.062 0.211,0.129 0.316,0.191 0.106,0.067 0.211,0.129 0.313,0.196 0.105,0.066 0.211,0.132 0.312,0.203 0.102,0.066 0.207,0.133 0.309,0.203 0.101,0.07 0.203,0.14 0.304,0.211 0.102,0.07 0.2,0.144 0.301,0.215 0.098,0.074 0.199,0.144 0.297,0.218 0.098,0.075 0.195,0.149 0.293,0.227 0.098,0.074 0.195,0.152 0.293,0.227 0.094,0.078 0.192,0.156 0.285,0.234 0.094,0.078 0.192,0.16 0.281,0.238 0.098,0.082 0.188,0.16 0.282,0.242 0.094,0.082 0.183,0.164 0.277,0.246 0.09,0.086 0.18,0.168 0.27,0.254 0.089,0.082 0.179,0.168 0.269,0.254 0.086,0.086 0.176,0.172 0.262,0.262 0.09,0.086 0.176,0.172 0.262,0.262 0.086,0.09 0.168,0.179 0.254,0.269 0.085,0.09 0.167,0.18 0.25,0.27 0.082,0.09 0.167,0.183 0.246,0.277 0.082,0.09 0.164,0.184 0.246,0.277 0.078,0.094 0.156,0.188 0.238,0.286 0.078,0.093 0.156,0.187 0.23,0.285 0.079,0.097 0.157,0.195 0.231,0.293 0.074,0.093 0.152,0.195 0.223,0.293 0.074,0.097 0.148,0.195 0.222,0.297 0.071,0.097 0.145,0.199 0.215,0.3 0.07,0.102 0.141,0.203 0.211,0.305 0.066,0.102 0.137,0.203 0.203,0.309 0.067,0.101 0.137,0.207 0.203,0.308 0.063,0.106 0.129,0.211 0.196,0.317 0.062,0.105 0.125,0.211 0.191,0.316 0.062,0.106 0.121,0.211 0.184,0.32 0.062,0.106 0.121,0.215 0.179,0.321 0.063,0.109 0.117,0.218 0.176,0.328 0.059,0.105 0.117,0.215 0.172,0.328 0.055,0.109 0.113,0.219 0.164,0.328 0.055,0.113 0.109,0.223 0.16,0.336 0.055,0.109 0.106,0.223 0.156,0.336 0.051,0.113 0.102,0.223 0.149,0.336 0.051,0.113 0.097,0.226 0.144,0.344 0.047,0.113 0.094,0.226 0.141,0.339 0.043,0.118 0.09,0.231 0.133,0.348 0.043,0.113 0.086,0.231 0.129,0.348 0.039,0.113 0.082,0.23 0.121,0.347 0.039,0.118 0.078,0.235 0.117,0.352 0.039,0.117 0.074,0.234 0.113,0.352 0.035,0.117 0.071,0.234 0.106,0.355 0.035,0.117 0.066,0.234 0.101,0.356 0.032,0.117 0.063,0.238 0.094,0.355 0.031,0.121 0.059,0.242 0.09,0.359 0.027,0.121 0.055,0.243 0.082,0.364 0.027,0.117 0.051,0.238 0.078,0.359 0.023,0.121 0.047,0.242 0.07,0.363 0.024,0.121 0.047,0.242 0.067,0.364 0.023,0.121 0.043,0.242 0.062,0.367 0.02,0.121 0.035,0.242 0.055,0.363 0.016,0.125 0.035,0.246 0.051,0.367 0.011,0.121 0.027,0.246 0.043,0.367 0.011,0.125 0.023,0.246 0.035,0.368 0.012,0.125 0.023,0.246 0.035,0.371 0.008,0.121 0.016,0.246 0.023,0.367 0.008,0.125 0.016,0.246 0.02,0.371 0.008,0.121 0.012,0.246 0.016,0.367 0.003,0.125 0.007,0.25 0.007,0.371 0.004,0.125 0.004,0.246 0.004,0.371 z"
   style="fill:none;stroke:#bf0000;stroke-width:0.50187498;stroke-linecap:round;stroke-linejoin:round;stroke-miterlimit:10.03750038;stroke-opacity:1;stroke-dasharray:none"
   id="path3015"
   inkscape:connector-curvature="0" /><path
   d="m 141.57,165.107 c 0,0.125 0,0.246 -0.004,0.371 0,0.125 -0.004,0.246 -0.007,0.371 -0.004,0.121 -0.008,0.246 -0.016,0.367 -0.004,0.125 -0.012,0.246 -0.02,0.371 -0.007,0.125 -0.015,0.246 -0.023,0.371 -0.012,0.121 -0.023,0.242 -0.035,0.367 -0.012,0.122 -0.024,0.247 -0.035,0.368 -0.016,0.121 -0.032,0.246 -0.043,0.367 -0.016,0.121 -0.035,0.246 -0.051,0.367 -0.02,0.121 -0.035,0.242 -0.055,0.367 -0.019,0.121 -0.039,0.242 -0.062,0.363 -0.02,0.122 -0.043,0.243 -0.067,0.364 -0.023,0.121 -0.047,0.242 -0.07,0.363 -0.027,0.121 -0.051,0.242 -0.078,0.363 -0.027,0.117 -0.055,0.239 -0.082,0.36 -0.031,0.121 -0.059,0.238 -0.09,0.359 -0.031,0.117 -0.062,0.238 -0.094,0.356 -0.035,0.121 -0.066,0.238 -0.101,0.355 -0.035,0.121 -0.071,0.238 -0.106,0.355 -0.039,0.118 -0.074,0.235 -0.113,0.356 -0.039,0.117 -0.078,0.234 -0.117,0.348 -0.039,0.117 -0.082,0.234 -0.121,0.351 -0.043,0.117 -0.086,0.231 -0.129,0.348 -0.043,0.113 -0.09,0.23 -0.133,0.344 -0.047,0.113 -0.094,0.23 -0.141,0.343 -0.047,0.114 -0.093,0.227 -0.144,0.34 -0.047,0.113 -0.098,0.227 -0.149,0.34 -0.05,0.109 -0.101,0.223 -0.156,0.332 -0.051,0.113 -0.105,0.223 -0.16,0.336 -0.051,0.109 -0.109,0.219 -0.164,0.332 -0.055,0.109 -0.113,0.219 -0.172,0.328 -0.059,0.106 -0.113,0.215 -0.176,0.324 -0.058,0.11 -0.117,0.215 -0.179,0.325 -0.063,0.105 -0.122,0.211 -0.184,0.316 -0.066,0.109 -0.129,0.215 -0.191,0.32 -0.067,0.102 -0.133,0.207 -0.196,0.313 -0.066,0.105 -0.136,0.207 -0.203,0.312 -0.066,0.102 -0.137,0.203 -0.203,0.305 -0.07,0.102 -0.141,0.203 -0.211,0.305 -0.07,0.101 -0.144,0.203 -0.215,0.3 -0.074,0.102 -0.148,0.2 -0.222,0.301 -0.071,0.098 -0.149,0.196 -0.223,0.293 -0.074,0.098 -0.152,0.192 -0.231,0.289 -0.074,0.098 -0.152,0.192 -0.23,0.289 -0.082,0.094 -0.16,0.188 -0.238,0.282 -0.082,0.093 -0.164,0.187 -0.246,0.281 -0.079,0.09 -0.164,0.183 -0.246,0.273 -0.083,0.09 -0.165,0.184 -0.25,0.274 -0.086,0.09 -0.168,0.175 -0.254,0.265 -0.086,0.09 -0.172,0.176 -0.262,0.266 -0.086,0.086 -0.176,0.172 -0.262,0.258 -0.09,0.086 -0.18,0.172 -0.269,0.254 -0.09,0.086 -0.18,0.168 -0.27,0.254 -0.094,0.082 -0.183,0.164 -0.277,0.246 -0.094,0.082 -0.184,0.16 -0.282,0.242 -0.089,0.082 -0.187,0.16 -0.281,0.238 -0.093,0.078 -0.191,0.156 -0.285,0.235 -0.098,0.074 -0.195,0.152 -0.293,0.226 -0.098,0.078 -0.195,0.152 -0.293,0.227 -0.098,0.074 -0.199,0.148 -0.297,0.218 -0.101,0.075 -0.199,0.145 -0.301,0.215 -0.101,0.071 -0.203,0.141 -0.304,0.211 -0.102,0.07 -0.207,0.137 -0.309,0.207 -0.101,0.067 -0.207,0.133 -0.312,0.199 -0.102,0.067 -0.207,0.133 -0.313,0.196 -0.105,0.066 -0.211,0.129 -0.316,0.191 -0.106,0.063 -0.211,0.125 -0.32,0.184 -0.106,0.062 -0.215,0.125 -0.321,0.183 -0.109,0.059 -0.219,0.117 -0.328,0.176 -0.109,0.055 -0.219,0.113 -0.328,0.168 -0.109,0.059 -0.219,0.113 -0.332,0.168 -0.109,0.055 -0.219,0.105 -0.332,0.16 -0.113,0.051 -0.223,0.102 -0.336,0.153 -0.113,0.05 -0.223,0.101 -0.34,0.152 -0.113,0.047 -0.226,0.094 -0.34,0.14 -0.113,0.051 -0.226,0.098 -0.343,0.141 -0.114,0.047 -0.227,0.09 -0.344,0.133 -0.117,0.043 -0.231,0.086 -0.348,0.129 -0.113,0.043 -0.23,0.082 -0.348,0.121 -0.117,0.043 -0.234,0.082 -0.351,0.121 -0.117,0.035 -0.235,0.074 -0.352,0.109 -0.117,0.036 -0.238,0.071 -0.355,0.106 -0.117,0.035 -0.238,0.07 -0.356,0.101 -0.117,0.032 -0.238,0.063 -0.359,0.094 -0.117,0.031 -0.238,0.063 -0.359,0.09 -0.118,0.027 -0.239,0.055 -0.36,0.082 -0.121,0.027 -0.238,0.055 -0.359,0.078 -0.121,0.028 -0.242,0.051 -0.363,0.074 -0.122,0.024 -0.243,0.043 -0.364,0.067 -0.125,0.019 -0.246,0.039 -0.367,0.058 -0.121,0.02 -0.242,0.039 -0.367,0.055 -0.121,0.02 -0.242,0.035 -0.363,0.051 -0.125,0.016 -0.246,0.031 -0.368,0.043 -0.125,0.015 -0.246,0.027 -0.371,0.039 -0.121,0.012 -0.246,0.023 -0.367,0.031 -0.121,0.008 -0.246,0.02 -0.367,0.027 -0.125,0.008 -0.25,0.012 -0.371,0.02 -0.125,0.004 -0.246,0.012 -0.371,0.016 -0.121,0 -0.246,0.004 -0.367,0.007 -0.125,0 -0.246,0 -0.371,0 -0.125,0 -0.247,0 -0.372,0 -0.121,-0.003 -0.246,-0.007 -0.367,-0.007 -0.125,-0.004 -0.25,-0.012 -0.371,-0.016 -0.125,-0.008 -0.246,-0.012 -0.371,-0.02 -0.121,-0.007 -0.246,-0.019 -0.367,-0.027 -0.125,-0.008 -0.246,-0.019 -0.367,-0.031 -0.125,-0.012 -0.246,-0.024 -0.371,-0.039 -0.122,-0.012 -0.243,-0.027 -0.368,-0.043 -0.121,-0.016 -0.242,-0.031 -0.367,-0.051 -0.121,-0.016 -0.242,-0.035 -0.363,-0.055 -0.121,-0.019 -0.246,-0.039 -0.367,-0.058 -0.121,-0.024 -0.242,-0.043 -0.364,-0.067 -0.121,-0.023 -0.242,-0.046 -0.363,-0.074 -0.121,-0.023 -0.238,-0.051 -0.359,-0.078 -0.121,-0.027 -0.242,-0.055 -0.363,-0.082 -0.118,-0.027 -0.239,-0.059 -0.356,-0.09 -0.121,-0.031 -0.242,-0.062 -0.359,-0.094 -0.117,-0.031 -0.239,-0.066 -0.356,-0.101 -0.117,-0.035 -0.238,-0.07 -0.355,-0.106 -0.117,-0.035 -0.235,-0.074 -0.352,-0.109 -0.117,-0.039 -0.234,-0.078 -0.351,-0.121 -0.118,-0.039 -0.235,-0.078 -0.348,-0.121 -0.117,-0.043 -0.234,-0.086 -0.348,-0.129 -0.117,-0.043 -0.23,-0.086 -0.347,-0.133 -0.114,-0.043 -0.227,-0.09 -0.34,-0.141 -0.113,-0.046 -0.231,-0.093 -0.344,-0.14 -0.109,-0.051 -0.223,-0.102 -0.336,-0.152 -0.113,-0.051 -0.226,-0.102 -0.336,-0.153 -0.113,-0.055 -0.222,-0.105 -0.336,-0.16 -0.109,-0.055 -0.218,-0.109 -0.328,-0.168 -0.109,-0.055 -0.219,-0.113 -0.328,-0.168 -0.109,-0.059 -0.219,-0.117 -0.328,-0.176 -0.106,-0.058 -0.215,-0.121 -0.32,-0.183 -0.11,-0.059 -0.215,-0.121 -0.321,-0.184 -0.105,-0.062 -0.211,-0.125 -0.316,-0.191 -0.106,-0.063 -0.211,-0.129 -0.317,-0.196 -0.101,-0.066 -0.207,-0.132 -0.308,-0.199 -0.106,-0.07 -0.207,-0.137 -0.309,-0.207 -0.101,-0.07 -0.203,-0.14 -0.304,-0.211 -0.102,-0.07 -0.2,-0.14 -0.301,-0.215 -0.098,-0.07 -0.199,-0.144 -0.297,-0.218 -0.098,-0.075 -0.195,-0.149 -0.293,-0.227 -0.098,-0.074 -0.195,-0.152 -0.293,-0.226 -0.094,-0.079 -0.191,-0.157 -0.285,-0.235 -0.098,-0.078 -0.192,-0.156 -0.285,-0.238 -0.094,-0.082 -0.188,-0.16 -0.278,-0.242 -0.093,-0.082 -0.183,-0.164 -0.277,-0.246 -0.09,-0.086 -0.18,-0.168 -0.27,-0.254 -0.089,-0.082 -0.179,-0.168 -0.269,-0.254 -0.09,-0.086 -0.176,-0.172 -0.262,-0.258 -0.09,-0.09 -0.176,-0.176 -0.262,-0.266 -0.085,-0.09 -0.171,-0.175 -0.253,-0.265 -0.086,-0.09 -0.168,-0.184 -0.25,-0.274 -0.086,-0.09 -0.168,-0.183 -0.25,-0.273 -0.079,-0.094 -0.161,-0.188 -0.243,-0.281 -0.078,-0.094 -0.16,-0.188 -0.238,-0.282 -0.078,-0.097 -0.156,-0.191 -0.23,-0.289 -0.079,-0.097 -0.157,-0.191 -0.231,-0.289 -0.074,-0.097 -0.152,-0.195 -0.222,-0.293 -0.075,-0.101 -0.149,-0.199 -0.223,-0.301 -0.07,-0.097 -0.145,-0.199 -0.215,-0.3 -0.07,-0.102 -0.141,-0.203 -0.211,-0.305 -0.066,-0.102 -0.137,-0.203 -0.203,-0.305 -0.07,-0.105 -0.137,-0.207 -0.203,-0.312 -0.067,-0.106 -0.129,-0.211 -0.195,-0.313 -0.063,-0.105 -0.129,-0.211 -0.192,-0.32 -0.062,-0.105 -0.125,-0.211 -0.184,-0.316 -0.062,-0.11 -0.121,-0.215 -0.179,-0.325 -0.063,-0.109 -0.121,-0.218 -0.176,-0.324 -0.059,-0.109 -0.117,-0.219 -0.172,-0.328 -0.055,-0.113 -0.113,-0.223 -0.164,-0.332 -0.055,-0.113 -0.109,-0.223 -0.16,-0.336 -0.055,-0.109 -0.106,-0.223 -0.156,-0.332 -0.051,-0.113 -0.102,-0.227 -0.149,-0.34 -0.051,-0.113 -0.097,-0.226 -0.144,-0.34 -0.047,-0.113 -0.094,-0.23 -0.141,-0.343 -0.043,-0.114 -0.09,-0.231 -0.133,-0.344 -0.043,-0.117 -0.086,-0.231 -0.129,-0.348 -0.039,-0.117 -0.082,-0.234 -0.121,-0.351 -0.039,-0.114 -0.078,-0.231 -0.117,-0.348 -0.039,-0.121 -0.074,-0.238 -0.113,-0.356 -0.035,-0.117 -0.07,-0.234 -0.106,-0.355 -0.035,-0.117 -0.066,-0.234 -0.101,-0.355 -0.031,-0.118 -0.063,-0.239 -0.094,-0.356 -0.031,-0.121 -0.059,-0.238 -0.09,-0.359 -0.027,-0.121 -0.055,-0.243 -0.082,-0.36 -0.027,-0.121 -0.055,-0.242 -0.078,-0.363 -0.023,-0.121 -0.051,-0.242 -0.07,-0.363 -0.024,-0.121 -0.047,-0.242 -0.067,-0.364 -0.023,-0.121 -0.043,-0.242 -0.062,-0.363 -0.02,-0.125 -0.039,-0.246 -0.055,-0.367 -0.019,-0.121 -0.035,-0.246 -0.051,-0.367 -0.015,-0.121 -0.027,-0.246 -0.043,-0.367 -0.011,-0.121 -0.027,-0.246 -0.035,-0.368 -0.012,-0.125 -0.023,-0.246 -0.035,-0.367 -0.008,-0.125 -0.016,-0.246 -0.023,-0.371 -0.008,-0.125 -0.016,-0.246 -0.024,-0.371 -0.004,-0.121 -0.008,-0.246 -0.012,-0.367 -0.003,-0.125 -0.007,-0.246 -0.007,-0.371 -0.004,-0.125 -0.004,-0.246 -0.004,-0.371 0,-0.121 0,-0.246 0.004,-0.367 0,-0.126 0.004,-0.25 0.007,-0.372 0.004,-0.121 0.008,-0.246 0.012,-0.371 0.008,-0.121 0.016,-0.246 0.024,-0.367 0.007,-0.125 0.015,-0.246 0.023,-0.371 0.012,-0.121 0.023,-0.246 0.035,-0.367 0.008,-0.121 0.024,-0.246 0.035,-0.367 0.016,-0.125 0.028,-0.246 0.043,-0.368 0.016,-0.125 0.032,-0.246 0.051,-0.367 0.016,-0.121 0.035,-0.246 0.055,-0.367 0.019,-0.121 0.039,-0.242 0.062,-0.363 0.02,-0.121 0.043,-0.242 0.067,-0.363 0.019,-0.125 0.047,-0.243 0.07,-0.364 0.023,-0.121 0.051,-0.242 0.078,-0.363 0.027,-0.121 0.055,-0.238 0.082,-0.359 0.031,-0.121 0.059,-0.239 0.09,-0.36 0.031,-0.121 0.063,-0.238 0.094,-0.359 0.035,-0.117 0.066,-0.235 0.101,-0.356 0.036,-0.117 0.071,-0.234 0.106,-0.351 0.039,-0.121 0.074,-0.238 0.113,-0.356 0.039,-0.117 0.078,-0.234 0.117,-0.351 0.039,-0.114 0.082,-0.231 0.121,-0.348 0.043,-0.117 0.086,-0.23 0.129,-0.348 0.043,-0.113 0.09,-0.23 0.133,-0.343 0.047,-0.114 0.094,-0.231 0.141,-0.344 0.047,-0.113 0.093,-0.227 0.144,-0.34 0.047,-0.113 0.098,-0.226 0.149,-0.34 0.05,-0.109 0.101,-0.222 0.156,-0.336 0.051,-0.109 0.105,-0.222 0.16,-0.332 0.051,-0.109 0.109,-0.222 0.164,-0.332 0.055,-0.109 0.113,-0.218 0.172,-0.328 0.055,-0.109 0.113,-0.219 0.176,-0.324 0.058,-0.109 0.117,-0.215 0.179,-0.324 0.059,-0.106 0.122,-0.215 0.184,-0.321 0.063,-0.105 0.129,-0.211 0.192,-0.316 0.066,-0.105 0.128,-0.211 0.195,-0.312 0.066,-0.106 0.133,-0.208 0.203,-0.313 0.066,-0.102 0.137,-0.203 0.203,-0.309 0.07,-0.101 0.141,-0.203 0.211,-0.3 0.07,-0.102 0.145,-0.204 0.215,-0.301 0.074,-0.102 0.148,-0.199 0.223,-0.301 0.07,-0.098 0.148,-0.195 0.222,-0.293 0.074,-0.098 0.152,-0.195 0.231,-0.289 0.074,-0.098 0.152,-0.191 0.23,-0.289 0.078,-0.094 0.16,-0.188 0.238,-0.281 0.082,-0.094 0.164,-0.188 0.243,-0.282 0.082,-0.089 0.164,-0.183 0.25,-0.273 0.082,-0.094 0.164,-0.184 0.25,-0.273 0.082,-0.09 0.168,-0.18 0.253,-0.266 0.086,-0.09 0.172,-0.18 0.262,-0.266 0.086,-0.086 0.172,-0.172 0.262,-0.257 0.09,-0.086 0.18,-0.172 0.269,-0.258 0.09,-0.082 0.18,-0.168 0.27,-0.25 0.094,-0.082 0.184,-0.164 0.277,-0.246 0.09,-0.082 0.184,-0.164 0.278,-0.243 0.093,-0.082 0.187,-0.16 0.285,-0.238 0.094,-0.078 0.191,-0.156 0.285,-0.234 0.098,-0.078 0.195,-0.153 0.293,-0.231 0.098,-0.074 0.195,-0.148 0.293,-0.222 0.098,-0.075 0.199,-0.149 0.297,-0.219 0.101,-0.074 0.199,-0.145 0.301,-0.215 0.101,-0.074 0.203,-0.141 0.304,-0.211 0.102,-0.07 0.203,-0.14 0.309,-0.207 0.101,-0.066 0.207,-0.133 0.308,-0.199 0.106,-0.067 0.211,-0.133 0.317,-0.195 0.105,-0.067 0.211,-0.129 0.316,-0.192 0.106,-0.062 0.211,-0.125 0.321,-0.187 0.105,-0.059 0.214,-0.121 0.32,-0.18 0.109,-0.059 0.219,-0.117 0.328,-0.176 0.109,-0.058 0.219,-0.113 0.328,-0.172 0.11,-0.054 0.219,-0.109 0.328,-0.164 0.114,-0.054 0.223,-0.109 0.336,-0.16 0.11,-0.051 0.223,-0.105 0.336,-0.156 0.113,-0.051 0.227,-0.098 0.336,-0.149 0.113,-0.046 0.231,-0.097 0.344,-0.144 0.113,-0.047 0.226,-0.094 0.34,-0.137 0.117,-0.047 0.23,-0.09 0.347,-0.137 0.114,-0.043 0.231,-0.085 0.348,-0.125 0.113,-0.043 0.23,-0.086 0.348,-0.125 0.117,-0.039 0.234,-0.078 0.351,-0.117 0.117,-0.035 0.235,-0.074 0.352,-0.109 0.117,-0.039 0.238,-0.074 0.355,-0.106 0.117,-0.035 0.239,-0.07 0.356,-0.101 0.117,-0.031 0.238,-0.067 0.359,-0.094 0.117,-0.031 0.238,-0.062 0.356,-0.09 0.121,-0.031 0.242,-0.058 0.363,-0.086 0.121,-0.027 0.238,-0.05 0.359,-0.078 0.121,-0.023 0.242,-0.047 0.363,-0.07 0.122,-0.024 0.243,-0.047 0.364,-0.067 0.121,-0.019 0.246,-0.043 0.367,-0.062 0.121,-0.02 0.242,-0.035 0.363,-0.055 0.125,-0.015 0.246,-0.031 0.367,-0.047 0.125,-0.015 0.246,-0.031 0.368,-0.043 0.125,-0.015 0.246,-0.027 0.371,-0.039 0.121,-0.011 0.242,-0.023 0.367,-0.031 0.121,-0.012 0.246,-0.019 0.367,-0.027 0.125,-0.008 0.246,-0.016 0.371,-0.02 0.121,-0.008 0.246,-0.011 0.371,-0.015 0.121,-0.004 0.246,-0.008 0.367,-0.008 0.125,-0.004 0.247,-0.004 0.372,-0.004 0.125,0 0.246,0 0.371,0.004 0.121,0 0.246,0.004 0.367,0.008 0.125,0.004 0.246,0.007 0.371,0.015 0.121,0.004 0.246,0.012 0.371,0.02 0.121,0.008 0.246,0.015 0.367,0.027 0.121,0.008 0.246,0.02 0.367,0.031 0.125,0.012 0.246,0.024 0.371,0.039 0.122,0.012 0.243,0.028 0.368,0.043 0.121,0.016 0.242,0.032 0.363,0.047 0.125,0.02 0.246,0.035 0.367,0.055 0.121,0.019 0.242,0.043 0.367,0.062 0.121,0.02 0.242,0.043 0.364,0.067 0.121,0.023 0.242,0.047 0.363,0.07 0.121,0.028 0.238,0.051 0.359,0.078 0.121,0.028 0.242,0.055 0.36,0.086 0.121,0.028 0.242,0.059 0.359,0.09 0.121,0.027 0.242,0.063 0.359,0.094 0.118,0.031 0.239,0.066 0.356,0.101 0.117,0.032 0.238,0.067 0.355,0.106 0.117,0.035 0.235,0.074 0.352,0.109 0.117,0.039 0.234,0.078 0.351,0.117 0.118,0.039 0.235,0.082 0.348,0.125 0.117,0.04 0.231,0.082 0.348,0.125 0.117,0.047 0.23,0.09 0.344,0.137 0.117,0.043 0.23,0.09 0.343,0.137 0.114,0.047 0.227,0.098 0.34,0.144 0.117,0.051 0.227,0.098 0.34,0.149 0.113,0.051 0.223,0.105 0.336,0.156 0.113,0.051 0.223,0.106 0.332,0.16 0.113,0.055 0.223,0.11 0.332,0.164 0.109,0.059 0.219,0.114 0.328,0.172 0.109,0.059 0.219,0.117 0.328,0.176 0.106,0.059 0.215,0.121 0.321,0.18 0.109,0.062 0.214,0.125 0.32,0.187 0.105,0.063 0.211,0.125 0.316,0.192 0.106,0.062 0.211,0.128 0.313,0.195 0.105,0.066 0.211,0.133 0.312,0.199 0.102,0.067 0.207,0.137 0.309,0.207 0.101,0.07 0.203,0.137 0.304,0.211 0.102,0.07 0.2,0.141 0.301,0.215 0.098,0.07 0.199,0.144 0.297,0.219 0.098,0.074 0.195,0.148 0.293,0.222 0.098,0.078 0.195,0.153 0.293,0.231 0.094,0.078 0.192,0.156 0.285,0.234 0.094,0.078 0.192,0.156 0.281,0.238 0.098,0.079 0.188,0.161 0.282,0.243 0.094,0.082 0.183,0.164 0.277,0.246 0.09,0.082 0.18,0.168 0.27,0.25 0.089,0.086 0.179,0.172 0.269,0.258 0.086,0.085 0.176,0.171 0.262,0.257 0.09,0.086 0.176,0.176 0.262,0.266 0.086,0.086 0.168,0.176 0.254,0.266 0.085,0.089 0.167,0.179 0.25,0.273 0.082,0.09 0.167,0.184 0.246,0.273 0.082,0.094 0.164,0.188 0.246,0.282 0.078,0.093 0.156,0.187 0.238,0.281 0.078,0.098 0.156,0.191 0.23,0.289 0.079,0.094 0.157,0.191 0.231,0.289 0.074,0.098 0.152,0.195 0.223,0.293 0.074,0.102 0.148,0.199 0.222,0.301 0.071,0.097 0.145,0.199 0.215,0.301 0.07,0.097 0.141,0.199 0.211,0.3 0.066,0.106 0.137,0.207 0.203,0.309 0.067,0.105 0.137,0.207 0.203,0.313 0.063,0.101 0.129,0.207 0.196,0.312 0.062,0.105 0.125,0.211 0.191,0.316 0.062,0.106 0.121,0.215 0.184,0.321 0.062,0.109 0.121,0.215 0.179,0.324 0.063,0.105 0.117,0.215 0.176,0.324 0.059,0.11 0.117,0.219 0.172,0.328 0.055,0.11 0.113,0.223 0.164,0.332 0.055,0.11 0.109,0.223 0.16,0.332 0.055,0.114 0.106,0.227 0.156,0.336 0.051,0.114 0.102,0.227 0.149,0.34 0.051,0.113 0.097,0.227 0.144,0.34 0.047,0.113 0.094,0.23 0.141,0.344 0.043,0.113 0.09,0.23 0.133,0.343 0.043,0.118 0.086,0.231 0.129,0.348 0.039,0.117 0.082,0.234 0.121,0.348 0.039,0.117 0.078,0.234 0.117,0.351 0.039,0.118 0.074,0.235 0.113,0.356 0.035,0.117 0.071,0.234 0.106,0.351 0.035,0.121 0.066,0.239 0.101,0.356 0.032,0.121 0.063,0.238 0.094,0.359 0.031,0.121 0.059,0.239 0.09,0.36 0.027,0.121 0.055,0.238 0.082,0.359 0.027,0.121 0.051,0.242 0.078,0.363 0.023,0.121 0.047,0.239 0.07,0.364 0.024,0.121 0.047,0.242 0.067,0.363 0.023,0.121 0.043,0.242 0.062,0.363 0.02,0.121 0.035,0.246 0.055,0.367 0.016,0.121 0.035,0.242 0.051,0.367 0.011,0.122 0.027,0.243 0.043,0.368 0.011,0.121 0.023,0.246 0.035,0.367 0.012,0.121 0.023,0.246 0.035,0.367 0.008,0.125 0.016,0.246 0.023,0.371 0.008,0.121 0.016,0.246 0.02,0.367 0.008,0.125 0.012,0.25 0.016,0.371 0.003,0.122 0.007,0.246 0.007,0.372 0.004,0.121 0.004,0.246 0.004,0.367 z"
   style="fill:none;stroke:#bf0000;stroke-width:0.50187498;stroke-linecap:round;stroke-linejoin:round;stroke-miterlimit:10.03750038;stroke-opacity:1;stroke-dasharray:none"
   id="path3019"
   inkscape:connector-curvature="0" /><path
   d="m 141.57,235.763 c 0,0.125 0,0.246 -0.004,0.371 0,0.121 -0.004,0.246 -0.007,0.367 -0.004,0.125 -0.008,0.246 -0.016,0.371 -0.004,0.125 -0.012,0.246 -0.02,0.368 -0.007,0.124 -0.015,0.246 -0.023,0.371 -0.012,0.121 -0.023,0.246 -0.035,0.367 -0.012,0.125 -0.024,0.246 -0.035,0.371 -0.016,0.121 -0.032,0.242 -0.043,0.367 -0.016,0.121 -0.035,0.242 -0.051,0.367 -0.02,0.121 -0.035,0.242 -0.055,0.364 -0.019,0.121 -0.039,0.242 -0.062,0.363 -0.02,0.125 -0.043,0.246 -0.067,0.367 -0.023,0.121 -0.047,0.242 -0.07,0.363 -0.027,0.117 -0.051,0.239 -0.078,0.36 -0.027,0.121 -0.055,0.242 -0.082,0.359 -0.031,0.121 -0.059,0.242 -0.09,0.359 -0.031,0.122 -0.062,0.239 -0.094,0.36 -0.035,0.117 -0.066,0.238 -0.101,0.355 -0.035,0.117 -0.071,0.235 -0.106,0.356 -0.039,0.117 -0.074,0.234 -0.113,0.351 -0.039,0.117 -0.078,0.235 -0.117,0.352 -0.039,0.117 -0.082,0.234 -0.121,0.348 -0.043,0.117 -0.086,0.234 -0.129,0.347 -0.043,0.117 -0.09,0.231 -0.133,0.344 -0.047,0.117 -0.094,0.23 -0.141,0.344 -0.047,0.113 -0.093,0.226 -0.144,0.339 -0.047,0.114 -0.098,0.227 -0.149,0.34 -0.05,0.114 -0.101,0.223 -0.156,0.336 -0.051,0.114 -0.105,0.223 -0.16,0.332 -0.051,0.114 -0.109,0.223 -0.164,0.332 -0.055,0.11 -0.113,0.219 -0.172,0.328 -0.059,0.11 -0.113,0.219 -0.176,0.325 -0.058,0.109 -0.117,0.218 -0.179,0.324 -0.063,0.109 -0.122,0.215 -0.184,0.32 -0.066,0.106 -0.129,0.211 -0.191,0.317 -0.067,0.105 -0.133,0.211 -0.196,0.316 -0.066,0.102 -0.136,0.207 -0.203,0.309 -0.066,0.105 -0.137,0.207 -0.203,0.308 -0.07,0.102 -0.141,0.203 -0.211,0.305 -0.07,0.098 -0.144,0.199 -0.215,0.301 -0.074,0.097 -0.148,0.199 -0.222,0.297 -0.071,0.097 -0.149,0.195 -0.223,0.293 -0.074,0.097 -0.152,0.195 -0.231,0.293 -0.074,0.093 -0.152,0.191 -0.23,0.285 -0.082,0.097 -0.16,0.191 -0.238,0.285 -0.082,0.09 -0.164,0.187 -0.246,0.277 -0.079,0.094 -0.164,0.184 -0.246,0.277 -0.083,0.09 -0.165,0.18 -0.25,0.27 -0.086,0.09 -0.168,0.18 -0.254,0.27 -0.086,0.086 -0.172,0.175 -0.262,0.261 -0.086,0.09 -0.176,0.176 -0.262,0.262 -0.09,0.086 -0.18,0.168 -0.269,0.254 -0.09,0.086 -0.18,0.168 -0.27,0.25 -0.094,0.086 -0.183,0.168 -0.277,0.246 -0.094,0.082 -0.184,0.164 -0.282,0.246 -0.089,0.078 -0.187,0.156 -0.281,0.234 -0.093,0.083 -0.191,0.157 -0.285,0.235 -0.098,0.078 -0.195,0.156 -0.293,0.23 -0.098,0.075 -0.195,0.149 -0.293,0.223 -0.098,0.074 -0.199,0.148 -0.297,0.223 -0.101,0.07 -0.199,0.144 -0.301,0.214 -0.101,0.071 -0.203,0.141 -0.304,0.208 -0.102,0.07 -0.207,0.14 -0.309,0.207 -0.101,0.066 -0.207,0.136 -0.312,0.199 -0.102,0.066 -0.207,0.133 -0.313,0.199 -0.105,0.062 -0.211,0.125 -0.316,0.187 -0.106,0.067 -0.211,0.125 -0.32,0.188 -0.106,0.062 -0.215,0.121 -0.321,0.18 -0.109,0.062 -0.219,0.121 -0.328,0.175 -0.109,0.059 -0.219,0.118 -0.328,0.172 -0.109,0.055 -0.219,0.11 -0.332,0.164 -0.109,0.055 -0.219,0.11 -0.332,0.161 -0.113,0.054 -0.223,0.105 -0.336,0.156 -0.113,0.051 -0.223,0.101 -0.34,0.148 -0.113,0.051 -0.226,0.098 -0.34,0.145 -0.113,0.047 -0.226,0.093 -0.343,0.14 -0.114,0.043 -0.227,0.09 -0.344,0.133 -0.117,0.043 -0.231,0.086 -0.348,0.129 -0.113,0.039 -0.23,0.082 -0.348,0.121 -0.117,0.039 -0.234,0.078 -0.351,0.117 -0.117,0.039 -0.235,0.075 -0.352,0.114 -0.117,0.035 -0.238,0.07 -0.355,0.105 -0.117,0.035 -0.238,0.067 -0.356,0.098 -0.117,0.035 -0.238,0.066 -0.359,0.097 -0.117,0.028 -0.238,0.059 -0.359,0.09 -0.118,0.028 -0.239,0.055 -0.36,0.082 -0.121,0.028 -0.238,0.051 -0.359,0.078 -0.121,0.024 -0.242,0.047 -0.363,0.071 -0.122,0.023 -0.243,0.047 -0.364,0.066 -0.125,0.024 -0.246,0.043 -0.367,0.063 -0.121,0.019 -0.242,0.035 -0.367,0.054 -0.121,0.016 -0.242,0.035 -0.363,0.051 -0.125,0.012 -0.246,0.027 -0.368,0.043 -0.125,0.012 -0.246,0.024 -0.371,0.035 -0.121,0.012 -0.246,0.024 -0.367,0.032 -0.121,0.011 -0.246,0.019 -0.367,0.027 -0.125,0.008 -0.25,0.015 -0.371,0.023 -0.125,0.004 -0.246,0.008 -0.371,0.012 -0.121,0.004 -0.246,0.008 -0.367,0.008 -0.125,0.004 -0.246,0.004 -0.371,0.004 -0.125,0 -0.247,0 -0.372,-0.004 -0.121,0 -0.246,-0.004 -0.367,-0.008 -0.125,-0.004 -0.25,-0.008 -0.371,-0.012 -0.125,-0.008 -0.246,-0.015 -0.371,-0.023 -0.121,-0.008 -0.246,-0.016 -0.367,-0.027 -0.125,-0.008 -0.246,-0.02 -0.367,-0.032 -0.125,-0.011 -0.246,-0.023 -0.371,-0.035 -0.122,-0.016 -0.243,-0.031 -0.368,-0.043 -0.121,-0.016 -0.242,-0.035 -0.367,-0.051 -0.121,-0.019 -0.242,-0.035 -0.363,-0.054 -0.121,-0.02 -0.246,-0.039 -0.367,-0.063 -0.121,-0.019 -0.242,-0.043 -0.364,-0.066 -0.121,-0.024 -0.242,-0.047 -0.363,-0.071 -0.121,-0.027 -0.238,-0.05 -0.359,-0.078 -0.121,-0.027 -0.242,-0.054 -0.363,-0.082 -0.118,-0.031 -0.239,-0.062 -0.356,-0.09 -0.121,-0.031 -0.242,-0.062 -0.359,-0.097 -0.117,-0.031 -0.239,-0.063 -0.356,-0.098 -0.117,-0.035 -0.238,-0.07 -0.355,-0.105 -0.117,-0.039 -0.235,-0.075 -0.352,-0.114 -0.117,-0.039 -0.234,-0.078 -0.351,-0.117 -0.118,-0.039 -0.235,-0.082 -0.348,-0.121 -0.117,-0.043 -0.234,-0.086 -0.348,-0.129 -0.117,-0.043 -0.23,-0.09 -0.347,-0.133 -0.114,-0.047 -0.227,-0.093 -0.34,-0.14 -0.113,-0.047 -0.231,-0.094 -0.344,-0.145 -0.109,-0.047 -0.223,-0.097 -0.336,-0.148 -0.113,-0.051 -0.226,-0.102 -0.336,-0.156 -0.113,-0.051 -0.222,-0.106 -0.336,-0.161 -0.109,-0.054 -0.218,-0.109 -0.328,-0.164 -0.109,-0.054 -0.219,-0.113 -0.328,-0.172 -0.109,-0.054 -0.219,-0.113 -0.328,-0.175 -0.106,-0.059 -0.215,-0.118 -0.32,-0.18 -0.11,-0.063 -0.215,-0.121 -0.321,-0.188 -0.105,-0.062 -0.211,-0.125 -0.316,-0.187 -0.106,-0.066 -0.211,-0.133 -0.317,-0.199 -0.101,-0.063 -0.207,-0.133 -0.308,-0.199 -0.106,-0.067 -0.207,-0.137 -0.309,-0.207 -0.101,-0.067 -0.203,-0.137 -0.304,-0.208 -0.102,-0.07 -0.2,-0.144 -0.301,-0.214 -0.098,-0.075 -0.199,-0.149 -0.297,-0.223 -0.098,-0.074 -0.195,-0.148 -0.293,-0.223 -0.098,-0.074 -0.195,-0.152 -0.293,-0.23 -0.094,-0.078 -0.191,-0.152 -0.285,-0.235 -0.098,-0.078 -0.192,-0.156 -0.285,-0.234 -0.094,-0.082 -0.188,-0.164 -0.278,-0.246 -0.093,-0.078 -0.183,-0.16 -0.277,-0.246 -0.09,-0.082 -0.18,-0.164 -0.27,-0.25 -0.089,-0.086 -0.179,-0.168 -0.269,-0.254 -0.09,-0.086 -0.176,-0.172 -0.262,-0.262 -0.09,-0.086 -0.176,-0.175 -0.262,-0.261 -0.085,-0.09 -0.171,-0.18 -0.253,-0.27 -0.086,-0.09 -0.168,-0.18 -0.25,-0.27 -0.086,-0.093 -0.168,-0.183 -0.25,-0.277 -0.079,-0.09 -0.161,-0.187 -0.243,-0.277 -0.078,-0.094 -0.16,-0.188 -0.238,-0.285 -0.078,-0.094 -0.156,-0.192 -0.23,-0.285 -0.079,-0.098 -0.157,-0.196 -0.231,-0.293 -0.074,-0.098 -0.152,-0.196 -0.222,-0.293 -0.075,-0.098 -0.149,-0.2 -0.223,-0.297 -0.07,-0.102 -0.145,-0.203 -0.215,-0.301 -0.07,-0.102 -0.141,-0.203 -0.211,-0.305 -0.066,-0.101 -0.137,-0.203 -0.203,-0.308 -0.07,-0.102 -0.137,-0.207 -0.203,-0.309 -0.067,-0.105 -0.129,-0.211 -0.195,-0.316 -0.063,-0.106 -0.129,-0.211 -0.192,-0.317 -0.062,-0.105 -0.125,-0.211 -0.184,-0.32 -0.062,-0.106 -0.121,-0.215 -0.179,-0.324 -0.063,-0.106 -0.121,-0.215 -0.176,-0.325 -0.059,-0.109 -0.117,-0.218 -0.172,-0.328 -0.055,-0.109 -0.113,-0.218 -0.164,-0.332 -0.055,-0.109 -0.109,-0.218 -0.16,-0.332 -0.055,-0.113 -0.106,-0.222 -0.156,-0.336 -0.051,-0.113 -0.102,-0.226 -0.149,-0.34 -0.051,-0.113 -0.097,-0.226 -0.144,-0.339 -0.047,-0.114 -0.094,-0.227 -0.141,-0.344 -0.043,-0.113 -0.09,-0.227 -0.133,-0.344 -0.043,-0.113 -0.086,-0.23 -0.129,-0.347 -0.039,-0.114 -0.082,-0.231 -0.121,-0.348 -0.039,-0.117 -0.078,-0.235 -0.117,-0.352 -0.039,-0.117 -0.074,-0.234 -0.113,-0.351 -0.035,-0.121 -0.07,-0.239 -0.106,-0.356 -0.035,-0.117 -0.066,-0.238 -0.101,-0.355 -0.031,-0.121 -0.063,-0.238 -0.094,-0.36 -0.031,-0.117 -0.059,-0.238 -0.09,-0.359 -0.027,-0.117 -0.055,-0.238 -0.082,-0.359 -0.027,-0.121 -0.055,-0.243 -0.078,-0.36 -0.023,-0.121 -0.051,-0.242 -0.07,-0.363 -0.024,-0.121 -0.047,-0.242 -0.067,-0.367 -0.023,-0.121 -0.043,-0.242 -0.062,-0.363 -0.02,-0.122 -0.039,-0.243 -0.055,-0.364 -0.019,-0.125 -0.035,-0.246 -0.051,-0.367 -0.015,-0.125 -0.027,-0.246 -0.043,-0.367 -0.011,-0.125 -0.027,-0.246 -0.035,-0.371 -0.012,-0.121 -0.023,-0.246 -0.035,-0.367 -0.008,-0.125 -0.016,-0.247 -0.023,-0.371 -0.008,-0.122 -0.016,-0.243 -0.024,-0.368 -0.004,-0.125 -0.008,-0.246 -0.012,-0.371 -0.003,-0.121 -0.007,-0.246 -0.007,-0.367 -0.004,-0.125 -0.004,-0.246 -0.004,-0.371 0,-0.125 0,-0.246 0.004,-0.371 0,-0.121 0.004,-0.246 0.007,-0.371 0.004,-0.121 0.008,-0.246 0.012,-0.367 0.008,-0.125 0.016,-0.247 0.024,-0.372 0.007,-0.121 0.015,-0.246 0.023,-0.367 0.012,-0.125 0.023,-0.246 0.035,-0.367 0.008,-0.125 0.024,-0.246 0.035,-0.371 0.016,-0.121 0.028,-0.242 0.043,-0.367 0.016,-0.121 0.032,-0.242 0.051,-0.367 0.016,-0.121 0.035,-0.243 0.055,-0.364 0.019,-0.121 0.039,-0.242 0.062,-0.367 0.02,-0.121 0.043,-0.242 0.067,-0.363 0.019,-0.121 0.047,-0.242 0.07,-0.363 0.023,-0.122 0.051,-0.239 0.078,-0.36 0.027,-0.121 0.055,-0.242 0.082,-0.363 0.031,-0.117 0.059,-0.238 0.09,-0.359 0.031,-0.118 0.063,-0.235 0.094,-0.356 0.035,-0.117 0.066,-0.238 0.101,-0.355 0.036,-0.121 0.071,-0.239 0.106,-0.356 0.039,-0.117 0.074,-0.234 0.113,-0.351 0.039,-0.118 0.078,-0.235 0.117,-0.352 0.039,-0.117 0.082,-0.234 0.121,-0.352 0.043,-0.113 0.086,-0.23 0.129,-0.343 0.043,-0.117 0.09,-0.231 0.133,-0.348 0.047,-0.113 0.094,-0.227 0.141,-0.34 0.047,-0.113 0.093,-0.23 0.144,-0.344 0.047,-0.109 0.098,-0.222 0.149,-0.335 0.05,-0.114 0.101,-0.227 0.156,-0.336 0.051,-0.114 0.105,-0.223 0.16,-0.336 0.051,-0.11 0.109,-0.219 0.164,-0.328 0.055,-0.11 0.113,-0.219 0.172,-0.329 0.055,-0.109 0.113,-0.218 0.176,-0.328 0.058,-0.105 0.117,-0.215 0.179,-0.32 0.059,-0.109 0.122,-0.215 0.184,-0.32 0.063,-0.106 0.129,-0.211 0.192,-0.317 0.066,-0.105 0.128,-0.211 0.195,-0.316 0.066,-0.102 0.133,-0.207 0.203,-0.309 0.066,-0.105 0.137,-0.207 0.203,-0.308 0.07,-0.102 0.141,-0.203 0.211,-0.305 0.07,-0.102 0.145,-0.199 0.215,-0.301 0.074,-0.101 0.148,-0.199 0.223,-0.297 0.07,-0.097 0.148,-0.195 0.222,-0.293 0.074,-0.097 0.152,-0.195 0.231,-0.293 0.074,-0.093 0.152,-0.191 0.23,-0.285 0.078,-0.097 0.16,-0.191 0.238,-0.285 0.082,-0.094 0.164,-0.187 0.243,-0.277 0.082,-0.094 0.164,-0.184 0.25,-0.278 0.082,-0.089 0.164,-0.179 0.25,-0.269 0.082,-0.09 0.168,-0.18 0.253,-0.27 0.086,-0.09 0.172,-0.175 0.262,-0.261 0.086,-0.09 0.172,-0.176 0.262,-0.262 0.09,-0.086 0.18,-0.172 0.269,-0.254 0.09,-0.086 0.18,-0.168 0.27,-0.25 0.094,-0.086 0.184,-0.168 0.277,-0.25 0.09,-0.082 0.184,-0.16 0.278,-0.242 0.093,-0.078 0.187,-0.16 0.285,-0.239 0.094,-0.078 0.191,-0.156 0.285,-0.23 0.098,-0.078 0.195,-0.156 0.293,-0.23 0.098,-0.075 0.195,-0.153 0.293,-0.227 0.098,-0.074 0.199,-0.145 0.297,-0.219 0.101,-0.07 0.199,-0.144 0.301,-0.215 0.101,-0.07 0.203,-0.14 0.304,-0.211 0.102,-0.066 0.203,-0.136 0.309,-0.203 0.101,-0.07 0.207,-0.136 0.308,-0.203 0.106,-0.066 0.211,-0.129 0.317,-0.195 0.105,-0.063 0.211,-0.129 0.316,-0.191 0.106,-0.063 0.211,-0.126 0.321,-0.184 0.105,-0.063 0.214,-0.121 0.32,-0.18 0.109,-0.062 0.219,-0.121 0.328,-0.179 0.109,-0.055 0.219,-0.114 0.328,-0.168 0.11,-0.055 0.219,-0.11 0.328,-0.168 0.114,-0.051 0.223,-0.106 0.336,-0.157 0.11,-0.054 0.223,-0.105 0.336,-0.156 0.113,-0.051 0.227,-0.101 0.336,-0.148 0.113,-0.051 0.231,-0.098 0.344,-0.145 0.113,-0.047 0.226,-0.094 0.34,-0.141 0.117,-0.046 0.23,-0.089 0.347,-0.132 0.114,-0.043 0.231,-0.086 0.348,-0.129 0.113,-0.043 0.23,-0.082 0.348,-0.121 0.117,-0.039 0.234,-0.078 0.351,-0.118 0.117,-0.039 0.235,-0.074 0.352,-0.113 0.117,-0.035 0.238,-0.07 0.355,-0.105 0.117,-0.035 0.239,-0.067 0.356,-0.102 0.117,-0.031 0.238,-0.062 0.359,-0.094 0.117,-0.031 0.238,-0.058 0.356,-0.089 0.121,-0.028 0.242,-0.055 0.363,-0.082 0.121,-0.028 0.238,-0.055 0.359,-0.079 0.121,-0.023 0.242,-0.05 0.363,-0.07 0.122,-0.023 0.243,-0.047 0.364,-0.07 0.121,-0.02 0.246,-0.039 0.367,-0.059 0.121,-0.019 0.242,-0.039 0.363,-0.054 0.125,-0.02 0.246,-0.036 0.367,-0.051 0.125,-0.016 0.246,-0.032 0.368,-0.043 0.125,-0.012 0.246,-0.024 0.371,-0.039 0.121,-0.008 0.242,-0.02 0.367,-0.032 0.121,-0.007 0.246,-0.015 0.367,-0.023 0.125,-0.008 0.246,-0.016 0.371,-0.023 0.121,-0.004 0.246,-0.008 0.371,-0.012 0.121,-0.004 0.246,-0.008 0.367,-0.008 0.125,-0.004 0.247,-0.004 0.372,-0.004 0.125,0 0.246,0 0.371,0.004 0.121,0 0.246,0.004 0.367,0.008 0.125,0.004 0.246,0.008 0.371,0.012 0.121,0.007 0.246,0.015 0.371,0.023 0.121,0.008 0.246,0.016 0.367,0.023 0.121,0.012 0.246,0.024 0.367,0.032 0.125,0.015 0.246,0.027 0.371,0.039 0.122,0.011 0.243,0.027 0.368,0.043 0.121,0.015 0.242,0.031 0.363,0.051 0.125,0.015 0.246,0.035 0.367,0.054 0.121,0.02 0.242,0.039 0.367,0.059 0.121,0.023 0.242,0.047 0.364,0.07 0.121,0.02 0.242,0.047 0.363,0.07 0.121,0.024 0.238,0.051 0.359,0.079 0.121,0.027 0.242,0.054 0.36,0.082 0.121,0.031 0.242,0.058 0.359,0.089 0.121,0.032 0.242,0.063 0.359,0.094 0.118,0.035 0.239,0.067 0.356,0.102 0.117,0.035 0.238,0.07 0.355,0.105 0.117,0.039 0.235,0.074 0.352,0.113 l 0.351,0.118 c 0.118,0.039 0.235,0.078 0.348,0.121 0.117,0.043 0.231,0.086 0.348,0.129 0.117,0.043 0.23,0.086 0.344,0.132 0.117,0.047 0.23,0.094 0.343,0.141 0.114,0.047 0.227,0.094 0.34,0.145 0.117,0.047 0.227,0.097 0.34,0.148 0.113,0.051 0.223,0.102 0.336,0.156 0.113,0.051 0.223,0.106 0.332,0.157 0.113,0.058 0.223,0.113 0.332,0.168 0.109,0.054 0.219,0.113 0.328,0.168 0.109,0.058 0.219,0.117 0.328,0.179 0.106,0.059 0.215,0.117 0.321,0.18 0.109,0.058 0.214,0.121 0.32,0.184 0.105,0.062 0.211,0.128 0.316,0.191 0.106,0.066 0.211,0.129 0.313,0.195 0.105,0.067 0.211,0.133 0.312,0.203 0.102,0.067 0.207,0.137 0.309,0.203 0.101,0.071 0.203,0.141 0.304,0.211 0.102,0.071 0.2,0.145 0.301,0.215 0.098,0.074 0.199,0.145 0.297,0.219 0.098,0.074 0.195,0.152 0.293,0.227 0.098,0.074 0.195,0.152 0.293,0.23 0.094,0.074 0.192,0.152 0.285,0.23 0.094,0.079 0.192,0.161 0.281,0.239 0.098,0.082 0.188,0.16 0.282,0.242 0.094,0.082 0.183,0.164 0.277,0.25 0.09,0.082 0.18,0.164 0.27,0.25 0.089,0.082 0.179,0.168 0.269,0.254 0.086,0.086 0.176,0.172 0.262,0.262 0.09,0.086 0.176,0.171 0.262,0.261 0.086,0.09 0.168,0.18 0.254,0.27 0.085,0.09 0.167,0.18 0.25,0.269 0.082,0.094 0.167,0.184 0.246,0.278 0.082,0.09 0.164,0.183 0.246,0.277 0.078,0.094 0.156,0.188 0.238,0.285 0.078,0.094 0.156,0.192 0.23,0.285 0.079,0.098 0.157,0.196 0.231,0.293 0.074,0.098 0.152,0.196 0.223,0.293 0.074,0.098 0.148,0.196 0.222,0.297 0.071,0.102 0.145,0.199 0.215,0.301 0.07,0.102 0.141,0.203 0.211,0.305 0.066,0.101 0.137,0.203 0.203,0.308 0.067,0.102 0.137,0.207 0.203,0.309 0.063,0.105 0.129,0.211 0.196,0.316 0.062,0.106 0.125,0.211 0.191,0.317 0.062,0.105 0.121,0.211 0.184,0.32 0.062,0.105 0.121,0.215 0.179,0.32 0.063,0.11 0.117,0.219 0.176,0.328 0.059,0.11 0.117,0.219 0.172,0.329 0.055,0.109 0.113,0.218 0.164,0.328 0.055,0.113 0.109,0.222 0.16,0.336 0.055,0.109 0.106,0.222 0.156,0.336 0.051,0.113 0.102,0.226 0.149,0.335 0.051,0.114 0.097,0.231 0.144,0.344 0.047,0.113 0.094,0.227 0.141,0.34 0.043,0.117 0.09,0.231 0.133,0.348 0.043,0.113 0.086,0.23 0.129,0.343 0.039,0.118 0.082,0.235 0.121,0.352 0.039,0.117 0.078,0.234 0.117,0.352 0.039,0.117 0.074,0.234 0.113,0.351 0.035,0.117 0.071,0.235 0.106,0.356 0.035,0.117 0.066,0.238 0.101,0.355 0.032,0.121 0.063,0.238 0.094,0.356 0.031,0.121 0.059,0.242 0.09,0.359 0.027,0.121 0.055,0.242 0.082,0.363 0.027,0.121 0.051,0.238 0.078,0.36 0.023,0.121 0.047,0.242 0.07,0.363 0.024,0.121 0.047,0.242 0.067,0.363 0.023,0.125 0.043,0.246 0.062,0.367 0.02,0.121 0.035,0.243 0.055,0.364 0.016,0.125 0.035,0.246 0.051,0.367 0.011,0.125 0.027,0.246 0.043,0.367 0.011,0.125 0.023,0.246 0.035,0.371 0.012,0.121 0.023,0.242 0.035,0.367 0.008,0.121 0.016,0.246 0.023,0.367 0.008,0.125 0.016,0.247 0.02,0.372 0.008,0.121 0.012,0.246 0.016,0.367 0.003,0.125 0.007,0.25 0.007,0.371 0.004,0.125 0.004,0.246 0.004,0.371 z"
   style="fill:none;stroke:#bf0000;stroke-width:0.50187498;stroke-linecap:round;stroke-linejoin:round;stroke-miterlimit:10.03750038;stroke-opacity:1;stroke-dasharray:none"
   id="path3023"
   inkscape:connector-curvature="0" /><path
   d="m 235.777,165.107 c 0,0.125 -0.004,0.246 -0.004,0.371 0,0.125 -0.003,0.246 -0.007,0.371 -0.004,0.121 -0.008,0.246 -0.016,0.367 -0.004,0.125 -0.012,0.246 -0.02,0.371 -0.007,0.125 -0.015,0.246 -0.027,0.371 -0.008,0.121 -0.019,0.242 -0.031,0.367 -0.012,0.122 -0.024,0.247 -0.039,0.368 -0.012,0.121 -0.028,0.246 -0.043,0.367 -0.016,0.121 -0.031,0.246 -0.047,0.367 -0.02,0.121 -0.035,0.242 -0.055,0.367 -0.019,0.121 -0.039,0.242 -0.062,0.363 -0.02,0.122 -0.043,0.243 -0.067,0.364 -0.023,0.121 -0.047,0.242 -0.07,0.363 -0.027,0.121 -0.051,0.242 -0.078,0.363 -0.027,0.117 -0.055,0.239 -0.086,0.36 -0.027,0.121 -0.059,0.238 -0.086,0.359 -0.031,0.117 -0.066,0.238 -0.098,0.356 -0.031,0.121 -0.066,0.238 -0.101,0.355 -0.031,0.121 -0.067,0.238 -0.106,0.355 -0.035,0.118 -0.07,0.235 -0.109,0.356 -0.039,0.117 -0.078,0.234 -0.117,0.348 -0.039,0.117 -0.082,0.234 -0.125,0.351 -0.039,0.117 -0.082,0.231 -0.125,0.348 -0.047,0.113 -0.09,0.23 -0.133,0.344 -0.047,0.113 -0.094,0.23 -0.141,0.343 -0.046,0.114 -0.097,0.227 -0.144,0.34 -0.051,0.113 -0.098,0.227 -0.149,0.34 -0.05,0.109 -0.105,0.223 -0.156,0.332 -0.055,0.113 -0.105,0.223 -0.16,0.336 -0.055,0.109 -0.109,0.219 -0.164,0.332 -0.055,0.109 -0.113,0.219 -0.172,0.328 -0.059,0.106 -0.117,0.215 -0.176,0.324 -0.058,0.11 -0.117,0.215 -0.179,0.325 -0.063,0.105 -0.125,0.211 -0.188,0.316 -0.062,0.109 -0.125,0.215 -0.191,0.32 -0.063,0.102 -0.129,0.207 -0.196,0.313 -0.066,0.105 -0.132,0.207 -0.199,0.312 -0.066,0.102 -0.137,0.203 -0.207,0.305 -0.066,0.102 -0.137,0.203 -0.207,0.305 -0.074,0.101 -0.144,0.203 -0.215,0.3 -0.074,0.102 -0.148,0.2 -0.222,0.301 -0.075,0.098 -0.149,0.196 -0.223,0.293 -0.078,0.098 -0.152,0.192 -0.231,0.289 -0.078,0.098 -0.156,0.192 -0.234,0.289 -0.078,0.094 -0.156,0.188 -0.238,0.282 -0.078,0.093 -0.16,0.187 -0.242,0.281 -0.082,0.09 -0.164,0.183 -0.246,0.273 -0.083,0.09 -0.168,0.184 -0.25,0.274 -0.086,0.09 -0.172,0.175 -0.258,0.265 -0.086,0.09 -0.172,0.176 -0.258,0.266 -0.086,0.086 -0.176,0.172 -0.262,0.258 -0.09,0.086 -0.179,0.172 -0.269,0.254 -0.09,0.086 -0.18,0.168 -0.274,0.254 -0.09,0.082 -0.183,0.164 -0.273,0.246 -0.094,0.082 -0.188,0.16 -0.281,0.242 -0.094,0.082 -0.188,0.16 -0.282,0.238 -0.097,0.078 -0.191,0.156 -0.289,0.235 -0.094,0.074 -0.191,0.152 -0.289,0.226 -0.098,0.078 -0.195,0.152 -0.293,0.227 -0.101,0.074 -0.199,0.148 -0.301,0.218 -0.097,0.075 -0.199,0.145 -0.3,0.215 -0.098,0.071 -0.2,0.141 -0.301,0.211 -0.102,0.07 -0.207,0.137 -0.309,0.207 -0.105,0.067 -0.207,0.133 -0.312,0.199 -0.102,0.067 -0.207,0.133 -0.313,0.196 -0.105,0.066 -0.211,0.129 -0.316,0.191 -0.11,0.063 -0.215,0.125 -0.32,0.184 -0.106,0.062 -0.215,0.125 -0.325,0.183 -0.105,0.059 -0.215,0.117 -0.324,0.176 -0.109,0.055 -0.219,0.113 -0.328,0.168 -0.109,0.059 -0.219,0.113 -0.332,0.168 -0.109,0.055 -0.223,0.105 -0.332,0.16 -0.113,0.051 -0.223,0.102 -0.336,0.153 -0.113,0.05 -0.227,0.101 -0.34,0.152 -0.113,0.047 -0.226,0.094 -0.34,0.14 -0.113,0.051 -0.23,0.098 -0.343,0.141 -0.114,0.047 -0.231,0.09 -0.344,0.133 -0.117,0.043 -0.231,0.086 -0.348,0.129 -0.117,0.043 -0.234,0.082 -0.348,0.121 -0.117,0.043 -0.234,0.082 -0.351,0.121 -0.117,0.035 -0.234,0.074 -0.356,0.109 -0.117,0.036 -0.234,0.071 -0.351,0.106 -0.121,0.035 -0.238,0.07 -0.356,0.101 -0.121,0.032 -0.238,0.063 -0.359,0.094 -0.117,0.031 -0.238,0.063 -0.359,0.09 -0.121,0.027 -0.239,0.055 -0.36,0.082 -0.121,0.027 -0.242,0.055 -0.363,0.078 -0.121,0.028 -0.242,0.051 -0.363,0.074 -0.121,0.024 -0.242,0.043 -0.364,0.067 -0.121,0.019 -0.242,0.039 -0.363,0.058 -0.121,0.02 -0.246,0.039 -0.367,0.055 -0.121,0.02 -0.242,0.035 -0.367,0.051 -0.121,0.016 -0.242,0.031 -0.367,0.043 -0.121,0.015 -0.247,0.027 -0.368,0.039 -0.121,0.012 -0.246,0.023 -0.367,0.031 -0.125,0.008 -0.246,0.02 -0.371,0.027 -0.121,0.008 -0.246,0.012 -0.367,0.02 -0.125,0.004 -0.246,0.012 -0.371,0.016 -0.125,0 -0.246,0.004 -0.371,0.007 -0.121,0 -0.246,0 -0.367,0 -0.125,0 -0.25,0 -0.372,0 -0.125,-0.003 -0.246,-0.007 -0.371,-0.007 -0.121,-0.004 -0.246,-0.012 -0.367,-0.016 -0.125,-0.008 -0.246,-0.012 -0.371,-0.02 -0.121,-0.007 -0.246,-0.019 -0.367,-0.027 -0.125,-0.008 -0.246,-0.019 -0.371,-0.031 -0.121,-0.012 -0.246,-0.024 -0.367,-0.039 -0.121,-0.012 -0.246,-0.027 -0.368,-0.043 -0.121,-0.016 -0.242,-0.031 -0.367,-0.051 -0.121,-0.016 -0.242,-0.035 -0.363,-0.055 -0.125,-0.019 -0.246,-0.039 -0.367,-0.058 -0.121,-0.024 -0.242,-0.043 -0.364,-0.067 -0.121,-0.023 -0.242,-0.046 -0.363,-0.074 -0.121,-0.023 -0.242,-0.051 -0.363,-0.078 -0.117,-0.027 -0.238,-0.055 -0.359,-0.082 -0.122,-0.027 -0.239,-0.059 -0.36,-0.09 -0.117,-0.031 -0.238,-0.062 -0.355,-0.094 -0.121,-0.031 -0.239,-0.066 -0.356,-0.101 -0.121,-0.035 -0.238,-0.07 -0.355,-0.106 -0.117,-0.035 -0.239,-0.074 -0.352,-0.109 -0.117,-0.039 -0.234,-0.078 -0.351,-0.121 -0.118,-0.039 -0.235,-0.078 -0.352,-0.121 -0.113,-0.043 -0.23,-0.086 -0.348,-0.129 -0.113,-0.043 -0.226,-0.086 -0.343,-0.133 -0.114,-0.043 -0.227,-0.09 -0.344,-0.141 -0.113,-0.046 -0.227,-0.093 -0.34,-0.14 -0.113,-0.051 -0.226,-0.102 -0.336,-0.152 -0.113,-0.051 -0.226,-0.102 -0.336,-0.153 -0.113,-0.055 -0.226,-0.105 -0.336,-0.16 -0.109,-0.055 -0.218,-0.109 -0.328,-0.168 -0.113,-0.055 -0.223,-0.113 -0.328,-0.168 -0.109,-0.059 -0.219,-0.117 -0.328,-0.176 -0.109,-0.058 -0.215,-0.121 -0.324,-0.183 -0.106,-0.059 -0.211,-0.121 -0.317,-0.184 -0.109,-0.062 -0.215,-0.125 -0.32,-0.191 -0.106,-0.063 -0.207,-0.129 -0.313,-0.196 -0.105,-0.066 -0.207,-0.132 -0.308,-0.199 -0.106,-0.07 -0.207,-0.137 -0.309,-0.207 -0.101,-0.07 -0.203,-0.14 -0.304,-0.211 -0.102,-0.07 -0.204,-0.14 -0.301,-0.215 -0.102,-0.07 -0.199,-0.144 -0.297,-0.218 -0.098,-0.075 -0.199,-0.149 -0.297,-0.227 -0.098,-0.074 -0.191,-0.152 -0.289,-0.226 -0.098,-0.079 -0.191,-0.157 -0.285,-0.235 -0.098,-0.078 -0.192,-0.156 -0.285,-0.238 -0.094,-0.082 -0.188,-0.16 -0.282,-0.242 -0.089,-0.082 -0.183,-0.164 -0.273,-0.246 -0.09,-0.086 -0.184,-0.168 -0.273,-0.254 -0.09,-0.082 -0.176,-0.168 -0.266,-0.254 -0.09,-0.086 -0.176,-0.172 -0.262,-0.258 -0.09,-0.09 -0.176,-0.176 -0.262,-0.266 -0.085,-0.09 -0.171,-0.175 -0.253,-0.265 -0.086,-0.09 -0.168,-0.184 -0.254,-0.274 -0.082,-0.09 -0.164,-0.183 -0.246,-0.273 -0.082,-0.094 -0.164,-0.188 -0.243,-0.281 -0.078,-0.094 -0.16,-0.188 -0.238,-0.282 -0.078,-0.097 -0.156,-0.191 -0.234,-0.289 -0.074,-0.097 -0.153,-0.191 -0.227,-0.289 -0.078,-0.097 -0.152,-0.195 -0.226,-0.293 -0.075,-0.101 -0.145,-0.199 -0.219,-0.301 -0.074,-0.097 -0.145,-0.199 -0.215,-0.3 -0.07,-0.102 -0.141,-0.203 -0.211,-0.305 -0.07,-0.102 -0.137,-0.203 -0.207,-0.305 -0.066,-0.105 -0.133,-0.207 -0.199,-0.312 -0.067,-0.106 -0.133,-0.211 -0.195,-0.313 -0.063,-0.105 -0.129,-0.211 -0.192,-0.32 -0.062,-0.105 -0.125,-0.211 -0.187,-0.316 -0.059,-0.11 -0.121,-0.215 -0.18,-0.325 -0.059,-0.109 -0.117,-0.218 -0.176,-0.324 -0.058,-0.109 -0.113,-0.219 -0.168,-0.328 -0.058,-0.113 -0.113,-0.223 -0.168,-0.332 -0.054,-0.113 -0.105,-0.223 -0.16,-0.336 -0.051,-0.109 -0.102,-0.223 -0.152,-0.332 -0.051,-0.113 -0.102,-0.227 -0.153,-0.34 -0.047,-0.113 -0.097,-0.226 -0.144,-0.34 -0.047,-0.113 -0.09,-0.23 -0.137,-0.343 -0.047,-0.114 -0.09,-0.231 -0.133,-0.344 -0.047,-0.117 -0.086,-0.231 -0.129,-0.348 -0.043,-0.117 -0.082,-0.234 -0.125,-0.351 -0.039,-0.114 -0.078,-0.231 -0.113,-0.348 -0.039,-0.121 -0.078,-0.238 -0.113,-0.356 -0.035,-0.117 -0.07,-0.234 -0.106,-0.355 -0.035,-0.117 -0.066,-0.234 -0.101,-0.355 -0.031,-0.118 -0.063,-0.239 -0.094,-0.356 -0.031,-0.121 -0.062,-0.238 -0.09,-0.359 -0.027,-0.121 -0.054,-0.243 -0.082,-0.36 -0.027,-0.121 -0.054,-0.242 -0.078,-0.363 -0.027,-0.121 -0.051,-0.242 -0.074,-0.363 -0.024,-0.121 -0.043,-0.242 -0.067,-0.364 -0.019,-0.121 -0.039,-0.242 -0.058,-0.363 -0.02,-0.125 -0.039,-0.246 -0.055,-0.367 -0.019,-0.121 -0.035,-0.246 -0.051,-0.367 -0.015,-0.121 -0.031,-0.246 -0.043,-0.367 -0.015,-0.121 -0.027,-0.246 -0.039,-0.368 -0.011,-0.125 -0.019,-0.246 -0.031,-0.367 -0.008,-0.125 -0.019,-0.246 -0.027,-0.371 -0.008,-0.125 -0.012,-0.246 -0.02,-0.371 -0.004,-0.121 -0.011,-0.246 -0.015,-0.367 -0.004,-0.125 -0.004,-0.246 -0.008,-0.371 0,-0.125 -0.004,-0.246 -0.004,-0.371 0,-0.121 0.004,-0.246 0.004,-0.367 0.004,-0.126 0.004,-0.25 0.008,-0.372 0.004,-0.121 0.011,-0.246 0.015,-0.371 0.008,-0.121 0.012,-0.246 0.02,-0.367 0.008,-0.125 0.019,-0.246 0.027,-0.371 0.012,-0.121 0.02,-0.246 0.031,-0.367 0.012,-0.121 0.024,-0.246 0.039,-0.367 0.012,-0.125 0.028,-0.246 0.043,-0.368 0.016,-0.125 0.032,-0.246 0.051,-0.367 0.016,-0.121 0.035,-0.246 0.055,-0.367 0.019,-0.121 0.039,-0.242 0.058,-0.363 0.024,-0.121 0.043,-0.242 0.067,-0.363 0.023,-0.125 0.047,-0.243 0.074,-0.364 0.024,-0.121 0.051,-0.242 0.078,-0.363 0.028,-0.121 0.055,-0.238 0.082,-0.359 0.028,-0.121 0.059,-0.239 0.09,-0.36 0.031,-0.121 0.063,-0.238 0.094,-0.359 0.035,-0.117 0.066,-0.235 0.101,-0.356 0.036,-0.117 0.071,-0.234 0.106,-0.351 0.035,-0.121 0.074,-0.238 0.113,-0.356 0.035,-0.117 0.074,-0.234 0.113,-0.351 0.043,-0.114 0.082,-0.231 0.125,-0.348 0.043,-0.117 0.082,-0.23 0.129,-0.348 0.043,-0.113 0.086,-0.23 0.133,-0.343 0.047,-0.114 0.09,-0.231 0.137,-0.344 0.047,-0.113 0.097,-0.227 0.144,-0.34 0.051,-0.113 0.102,-0.226 0.153,-0.34 0.05,-0.109 0.101,-0.222 0.152,-0.336 0.055,-0.109 0.106,-0.222 0.16,-0.332 0.055,-0.109 0.11,-0.222 0.168,-0.332 0.055,-0.109 0.11,-0.218 0.168,-0.328 0.059,-0.109 0.117,-0.219 0.176,-0.324 0.059,-0.109 0.121,-0.215 0.18,-0.324 0.062,-0.106 0.125,-0.215 0.187,-0.321 0.063,-0.105 0.129,-0.211 0.192,-0.316 0.062,-0.105 0.128,-0.211 0.195,-0.312 0.066,-0.106 0.133,-0.208 0.199,-0.313 0.07,-0.102 0.137,-0.203 0.207,-0.309 0.07,-0.101 0.141,-0.203 0.211,-0.3 0.07,-0.102 0.141,-0.204 0.215,-0.301 0.074,-0.102 0.144,-0.199 0.219,-0.301 0.074,-0.098 0.148,-0.195 0.226,-0.293 0.074,-0.098 0.153,-0.195 0.227,-0.289 0.078,-0.098 0.156,-0.191 0.234,-0.289 0.078,-0.094 0.16,-0.188 0.238,-0.281 0.079,-0.094 0.161,-0.188 0.243,-0.282 0.082,-0.089 0.164,-0.183 0.246,-0.273 0.086,-0.094 0.168,-0.184 0.254,-0.273 0.082,-0.09 0.168,-0.18 0.253,-0.266 0.086,-0.09 0.172,-0.18 0.262,-0.266 0.086,-0.086 0.172,-0.172 0.262,-0.257 0.09,-0.086 0.176,-0.172 0.266,-0.258 0.089,-0.082 0.183,-0.168 0.273,-0.25 0.09,-0.082 0.184,-0.164 0.273,-0.246 0.094,-0.082 0.188,-0.164 0.282,-0.243 0.093,-0.082 0.187,-0.16 0.285,-0.238 0.094,-0.078 0.187,-0.156 0.285,-0.234 0.098,-0.078 0.191,-0.153 0.289,-0.231 0.098,-0.074 0.199,-0.148 0.297,-0.222 0.098,-0.075 0.195,-0.149 0.297,-0.219 0.097,-0.074 0.199,-0.145 0.301,-0.215 0.101,-0.074 0.203,-0.141 0.304,-0.211 0.102,-0.07 0.203,-0.14 0.309,-0.207 0.101,-0.066 0.203,-0.133 0.308,-0.199 0.106,-0.067 0.207,-0.133 0.313,-0.195 0.105,-0.067 0.211,-0.129 0.32,-0.192 0.106,-0.062 0.211,-0.125 0.317,-0.187 0.109,-0.059 0.215,-0.121 0.324,-0.18 0.109,-0.059 0.219,-0.117 0.328,-0.176 0.105,-0.058 0.215,-0.113 0.328,-0.172 0.11,-0.054 0.219,-0.109 0.328,-0.164 0.11,-0.054 0.223,-0.109 0.336,-0.16 0.11,-0.051 0.223,-0.105 0.336,-0.156 0.11,-0.051 0.223,-0.098 0.336,-0.149 0.113,-0.046 0.227,-0.097 0.34,-0.144 0.117,-0.047 0.23,-0.094 0.344,-0.137 0.117,-0.047 0.23,-0.09 0.343,-0.137 0.118,-0.043 0.235,-0.085 0.348,-0.125 0.117,-0.043 0.234,-0.086 0.352,-0.125 0.117,-0.039 0.234,-0.078 0.351,-0.117 0.113,-0.035 0.235,-0.074 0.352,-0.109 0.117,-0.039 0.234,-0.074 0.355,-0.106 0.117,-0.035 0.235,-0.07 0.356,-0.101 0.117,-0.031 0.238,-0.067 0.355,-0.094 0.121,-0.031 0.238,-0.062 0.36,-0.09 0.121,-0.031 0.242,-0.058 0.359,-0.086 0.121,-0.027 0.242,-0.05 0.363,-0.078 0.121,-0.023 0.242,-0.047 0.363,-0.07 0.122,-0.024 0.243,-0.047 0.364,-0.067 0.121,-0.019 0.242,-0.043 0.367,-0.062 0.121,-0.02 0.242,-0.035 0.363,-0.055 0.125,-0.015 0.246,-0.031 0.367,-0.047 0.122,-0.015 0.247,-0.031 0.368,-0.043 0.121,-0.015 0.246,-0.027 0.367,-0.039 0.125,-0.011 0.246,-0.023 0.371,-0.031 0.121,-0.012 0.246,-0.019 0.367,-0.027 0.125,-0.008 0.246,-0.016 0.371,-0.02 0.121,-0.008 0.246,-0.011 0.367,-0.015 0.125,-0.004 0.246,-0.008 0.371,-0.008 0.122,-0.004 0.247,-0.004 0.372,-0.004 0.121,0 0.246,0 0.367,0.004 0.125,0 0.246,0.004 0.371,0.008 0.125,0.004 0.246,0.007 0.371,0.015 0.121,0.004 0.246,0.012 0.367,0.02 0.125,0.008 0.246,0.015 0.371,0.027 0.121,0.008 0.246,0.02 0.367,0.031 0.121,0.012 0.247,0.024 0.368,0.039 0.125,0.012 0.246,0.028 0.367,0.043 0.125,0.016 0.246,0.032 0.367,0.047 0.121,0.02 0.246,0.035 0.367,0.055 0.121,0.019 0.242,0.043 0.363,0.062 0.122,0.02 0.243,0.043 0.364,0.067 0.121,0.023 0.242,0.047 0.363,0.07 0.121,0.028 0.242,0.051 0.363,0.078 0.121,0.028 0.239,0.055 0.36,0.086 0.121,0.028 0.242,0.059 0.359,0.09 0.121,0.027 0.238,0.063 0.359,0.094 0.118,0.031 0.235,0.066 0.356,0.101 0.117,0.032 0.234,0.067 0.351,0.106 0.122,0.035 0.239,0.074 0.356,0.109 0.117,0.039 0.234,0.078 0.351,0.117 0.114,0.039 0.231,0.082 0.348,0.125 0.117,0.04 0.231,0.082 0.348,0.125 0.113,0.047 0.23,0.09 0.344,0.137 0.113,0.043 0.23,0.09 0.343,0.137 0.114,0.047 0.227,0.098 0.34,0.144 0.113,0.051 0.227,0.098 0.34,0.149 0.113,0.051 0.223,0.105 0.336,0.156 0.109,0.051 0.223,0.106 0.332,0.16 0.113,0.055 0.223,0.11 0.332,0.164 0.109,0.059 0.219,0.114 0.328,0.172 0.109,0.059 0.219,0.117 0.324,0.176 0.11,0.059 0.219,0.121 0.325,0.18 0.105,0.062 0.21,0.125 0.32,0.187 0.105,0.063 0.211,0.125 0.316,0.192 0.106,0.062 0.211,0.128 0.313,0.195 0.105,0.066 0.207,0.133 0.312,0.199 0.102,0.067 0.207,0.137 0.309,0.207 0.101,0.07 0.203,0.137 0.301,0.211 0.101,0.07 0.203,0.141 0.3,0.215 0.102,0.07 0.2,0.144 0.301,0.219 0.098,0.074 0.195,0.148 0.293,0.222 0.098,0.078 0.195,0.153 0.289,0.231 0.098,0.078 0.192,0.156 0.289,0.234 0.094,0.078 0.188,0.156 0.282,0.238 0.093,0.079 0.187,0.161 0.281,0.243 0.09,0.082 0.183,0.164 0.273,0.246 0.094,0.082 0.184,0.168 0.274,0.25 0.09,0.086 0.179,0.172 0.269,0.258 0.086,0.085 0.176,0.171 0.262,0.257 0.086,0.086 0.172,0.176 0.258,0.266 0.086,0.086 0.172,0.176 0.258,0.266 0.082,0.089 0.167,0.179 0.25,0.273 0.082,0.09 0.164,0.184 0.246,0.273 0.082,0.094 0.164,0.188 0.242,0.282 0.082,0.093 0.16,0.187 0.238,0.281 0.078,0.098 0.156,0.191 0.234,0.289 0.079,0.094 0.153,0.191 0.231,0.289 0.074,0.098 0.148,0.195 0.223,0.293 0.074,0.102 0.148,0.199 0.222,0.301 0.071,0.097 0.141,0.199 0.215,0.301 0.07,0.097 0.141,0.199 0.207,0.3 0.07,0.106 0.141,0.207 0.207,0.309 0.067,0.105 0.133,0.207 0.199,0.313 0.067,0.101 0.133,0.207 0.196,0.312 0.066,0.105 0.129,0.211 0.191,0.316 0.063,0.106 0.125,0.215 0.188,0.321 0.062,0.109 0.121,0.215 0.179,0.324 0.059,0.105 0.117,0.215 0.176,0.324 0.059,0.11 0.117,0.219 0.172,0.328 0.055,0.11 0.109,0.223 0.164,0.332 0.055,0.11 0.105,0.223 0.16,0.332 0.051,0.114 0.106,0.227 0.156,0.336 0.051,0.114 0.098,0.227 0.149,0.34 0.047,0.113 0.098,0.227 0.144,0.34 0.047,0.113 0.094,0.23 0.141,0.344 0.043,0.113 0.086,0.23 0.133,0.343 0.043,0.118 0.086,0.231 0.125,0.348 0.043,0.117 0.086,0.234 0.125,0.348 0.039,0.117 0.078,0.234 0.117,0.351 0.039,0.118 0.074,0.235 0.109,0.356 0.039,0.117 0.075,0.234 0.106,0.351 0.035,0.121 0.07,0.239 0.101,0.356 0.032,0.121 0.067,0.238 0.098,0.359 0.027,0.121 0.059,0.239 0.086,0.36 0.031,0.121 0.059,0.238 0.086,0.359 0.027,0.121 0.051,0.242 0.078,0.363 0.023,0.121 0.047,0.239 0.07,0.364 0.024,0.121 0.047,0.242 0.067,0.363 0.023,0.121 0.043,0.242 0.062,0.363 0.02,0.121 0.035,0.246 0.055,0.367 0.016,0.121 0.031,0.242 0.047,0.367 0.015,0.122 0.031,0.243 0.043,0.368 0.015,0.121 0.027,0.246 0.039,0.367 0.012,0.121 0.023,0.246 0.031,0.367 0.012,0.125 0.02,0.246 0.027,0.371 0.008,0.121 0.016,0.246 0.02,0.367 0.008,0.125 0.012,0.25 0.016,0.371 0.004,0.122 0.007,0.246 0.007,0.372 0,0.121 0.004,0.246 0.004,0.367 z"
   style="fill:none;stroke:#008000;stroke-width:0.50187498;stroke-linecap:round;stroke-linejoin:round;stroke-miterlimit:10.03750038;stroke-opacity:1;stroke-dasharray:none"
   id="path3031"
   inkscape:connector-curvature="0" /><path
   d="m 143.926,94.454 42.39,0"
   style="fill:none;stroke:#ffffff;stroke-width:2.00749993;stroke-linecap:round;stroke-linejoin:round;stroke-miterlimit:10.03750038;stroke-opacity:1;stroke-dasharray:none"
   id="path3203"
   inkscape:connector-curvature="0" /><path
   d="M 138.746,109.997 191.5,149.564"
   style="fill:none;stroke:#ffffff;stroke-width:2.00749993;stroke-linecap:round;stroke-linejoin:round;stroke-miterlimit:10.03750038;stroke-opacity:1;stroke-dasharray:none"
   id="path3215"
   inkscape:connector-curvature="0" /><path
   d="M 185.477,145.048 138.746,109.997"
   style="fill:none;stroke:#000000;stroke-width:0.50187498;stroke-linecap:round;stroke-linejoin:round;stroke-miterlimit:10.03750038;stroke-opacity:1;stroke-dasharray:none"
   id="path3219"
   inkscape:connector-curvature="0" /><path
   d="m 191.5,149.564 -7.234,-2.903 2.422,-3.226 4.812,6.129 z"
   style="fill:#000000;fill-opacity:1;fill-rule:nonzero;stroke:#000000;stroke-width:0.50187498;stroke-linecap:round;stroke-linejoin:round;stroke-miterlimit:10.03750038;stroke-opacity:1;stroke-dasharray:none"
   id="path3223"
   inkscape:connector-curvature="0" /><path
   d="m 143.926,165.107 42.39,0"
   style="fill:none;stroke:#ffffff;stroke-width:2.00749993;stroke-linecap:round;stroke-linejoin:round;stroke-miterlimit:10.03750038;stroke-opacity:1;stroke-dasharray:none"
   id="path3239"
   inkscape:connector-curvature="0" /><path
   d="m 178.789,165.107 -34.863,0"
   style="fill:none;stroke:#000000;stroke-width:0.50187498;stroke-linecap:round;stroke-linejoin:round;stroke-miterlimit:10.03750038;stroke-opacity:1;stroke-dasharray:none"
   id="path3243"
   inkscape:connector-curvature="0" /><path
   d="m 186.316,165.107 -7.527,2.019 0,-4.035 7.527,2.016 z"
   style="fill:#000000;fill-opacity:1;fill-rule:nonzero;stroke:#000000;stroke-width:0.50187498;stroke-linecap:round;stroke-linejoin:round;stroke-miterlimit:10.03750038;stroke-opacity:1;stroke-dasharray:none"
   id="path3247"
   inkscape:connector-curvature="0" /><path
   d="M 138.746,220.22 191.5,180.654"
   style="fill:none;stroke:#ffffff;stroke-width:2.00749993;stroke-linecap:round;stroke-linejoin:round;stroke-miterlimit:10.03750038;stroke-opacity:1;stroke-dasharray:none"
   id="path3263"
   inkscape:connector-curvature="0" /><path
   d="M 185.477,185.169 138.746,220.22"
   style="fill:none;stroke:#000000;stroke-width:0.50187498;stroke-linecap:round;stroke-linejoin:round;stroke-miterlimit:10.03750038;stroke-opacity:1;stroke-dasharray:none"
   id="path3267"
   inkscape:connector-curvature="0" /><path
   d="m 191.5,180.654 -4.812,6.128 -2.422,-3.226 7.234,-2.902 z"
   style="fill:#000000;fill-opacity:1;fill-rule:nonzero;stroke:#000000;stroke-width:0.50187498;stroke-linecap:round;stroke-linejoin:round;stroke-miterlimit:10.03750038;stroke-opacity:1;stroke-dasharray:none"
   id="path3271"
   inkscape:connector-curvature="0" /><g
   id="g4172"
   transform="translate(95.224742,34.14433)"
   style="fill:#bf0000;fill-opacity:1"><path
     d="m 12.227,237.263 c 0,0.445 0.035,0.566 0.933,0.566 l 0.266,0 0,0.348 c -0.289,-0.023 -1.321,-0.023 -1.68,-0.023 -0.359,0 -1.406,0 -1.691,0.023 l 0,-0.348 0.261,0 c 0.903,0 0.938,-0.121 0.938,-0.566 l 0,-6.371 c 0,-0.445 -0.035,-0.563 -0.938,-0.563 l -0.261,0 0,-0.347 c 0.285,0.023 1.32,0.023 1.679,0.023 0.36,0 1.403,0 1.692,-0.023 l 0,0.347 -0.266,0 c -0.898,0 -0.933,0.118 -0.933,0.563 l 0,6.371 z"
     style="fill:#bf0000;fill-opacity:1;fill-rule:nonzero;stroke:none"
     id="path3273"
     inkscape:connector-curvature="0" /><path
     d="m 19.199,232.896 c 0,1.117 0,1.453 -0.273,1.836 -0.348,0.468 -0.914,0.539 -1.321,0.539 -1.164,0 -1.621,-0.996 -1.718,-1.235 l -0.012,0 0,1.235 -1.629,-0.129 0,-0.352 c 0.813,0 0.91,-0.082 0.91,-0.672 l 0,-3.25 c 0,-0.539 -0.133,-0.539 -0.91,-0.539 l 0,-0.347 c 0.309,0.023 0.957,0.023 1.293,0.023 0.348,0 0.996,0 1.309,-0.023 l 0,0.347 c -0.766,0 -0.91,0 -0.91,0.539 l 0,2.231 c 0,1.262 0.828,1.933 1.57,1.933 0.746,0 0.914,-0.613 0.914,-1.343 l 0,-2.821 c 0,-0.539 -0.133,-0.539 -0.914,-0.539 l 0,-0.347 c 0.312,0.023 0.961,0.023 1.297,0.023 0.347,0 0.996,0 1.308,-0.023 l 0,0.347 c -0.601,0 -0.902,0 -0.914,0.36 l 0,2.207 z"
     style="fill:#bf0000;fill-opacity:1;fill-rule:nonzero;stroke:none"
     id="path3275"
     inkscape:connector-curvature="0" /><path
     d="m 23.328,228.001 c -0.769,0 -0.91,0 -0.91,0.539 l 0,2.086 c 0.215,-0.297 0.707,-0.765 1.473,-0.765 1.382,0 2.593,1.164 2.593,2.711 0,1.523 -1.129,2.699 -2.437,2.699 -1.055,0 -1.617,-0.754 -1.656,-0.805 l 0,0.805 -1.668,-0.129 0,-0.352 c 0.839,0 0.914,-0.082 0.914,-0.609 l 0,-5.641 c 0,-0.539 -0.133,-0.539 -0.914,-0.539 l 0,-0.347 c 0.312,0.023 0.961,0.023 1.297,0.023 0.347,0 0.996,0 1.308,-0.023 l 0,0.347 z m -0.91,5.809 c 0,0.226 0,0.238 0.129,0.43 0.359,0.539 0.949,0.769 1.406,0.769 0.899,0 1.617,-1.094 1.617,-2.437 0,-1.426 -0.812,-2.473 -1.738,-2.473 -0.371,0 -0.719,0.156 -0.961,0.387 -0.273,0.273 -0.453,0.515 -0.453,0.851 l 0,2.473 z"
     style="fill:#bf0000;fill-opacity:1;fill-rule:nonzero;stroke:none"
     id="path3277"
     inkscape:connector-curvature="0" /><path
     d="m 30.562,235.142 0,-0.352 c 0.817,0 0.915,-0.082 0.915,-0.672 l 0,-2.144 c 0,-1.024 -0.539,-1.875 -1.442,-1.875 -0.984,0 -1.043,0.566 -1.043,1.199 l 0,3.973 -1.691,-0.129 0,-0.352 c 0.91,0 0.91,-0.035 0.91,-1.101 l 0,-1.801 c 0,-0.742 0,-1.176 0.359,-1.57 0.289,-0.313 0.782,-0.457 1.395,-0.457 0.203,0 0.586,0 0.996,0.347 0.348,0.278 0.539,0.731 0.539,0.731 l 0,-1.078 1.668,0.121 0,0.347 c -0.816,0 -0.914,0.082 -0.914,0.672 l 0,4.27 -1.692,-0.129 z"
     style="fill:#bf0000;fill-opacity:1;fill-rule:nonzero;stroke:none"
     id="path3279"
     inkscape:connector-curvature="0" /><path
     d="m 35.461,234.806 1.691,0 0,0.348 -1.691,0 0,2.207 -0.266,0 c -0.011,-1.129 -0.445,-2.282 -1.535,-2.317 l 0,-0.238 1.02,0 0,-3.34 c 0,-1.328 0.886,-1.605 1.523,-1.605 0.758,0 1.152,0.742 1.152,1.605 l 0,0.688 -0.265,0 0,-0.661 c 0,-0.867 -0.348,-1.371 -0.813,-1.371 -0.816,0 -0.816,1.118 -0.816,1.321 l 0,3.363 z"
     style="fill:#bf0000;fill-opacity:1;fill-rule:nonzero;stroke:none"
     id="path3281"
     inkscape:connector-curvature="0" /></g><path
   inkscape:connector-curvature="0"
   id="path3295"
   style="fill:#008000;fill-opacity:1;fill-rule:nonzero;stroke:none"
   d="m 201.781,198.72 c 0,2.484 -1.824,4.379 -3.91,4.379 -2.137,0 -3.926,-1.918 -3.926,-4.379 0,-2.438 1.813,-4.32 3.914,-4.32 2.149,0 3.922,1.91 3.922,4.32 z m -3.91,-4.043 c -1.223,0 -2.809,1.152 -2.809,4.223 0,2.941 1.668,3.937 2.797,3.937 1.188,0 2.809,-1.031 2.809,-3.937 0,-3.121 -1.633,-4.223 -2.797,-4.223 z" /><path
   inkscape:connector-curvature="0"
   id="path3297"
   style="fill:#008000;fill-opacity:1;fill-rule:nonzero;stroke:none"
   d="m 206.086,199.814 0,-0.348 c 0.816,0 0.91,-0.086 0.91,-0.672 l 0,-2.148 c 0,-1.02 -0.539,-1.875 -1.437,-1.875 -0.985,0 -1.043,0.566 -1.043,1.203 l 0,3.969 -1.696,-0.129 0,-0.348 c 0.914,0 0.914,-0.039 0.914,-1.105 l 0,-1.801 c 0,-0.742 0,-1.176 0.36,-1.57 0.289,-0.313 0.781,-0.458 1.39,-0.458 0.207,0 0.59,0 0.996,0.348 0.348,0.277 0.543,0.731 0.543,0.731 l 0,-1.079 1.668,0.122 0,0.347 c -0.816,0 -0.914,0.082 -0.914,0.672 l 0,4.27 -1.691,-0.129 z" /><path
   inkscape:connector-curvature="0"
   id="path3299"
   style="fill:#008000;fill-opacity:1;fill-rule:nonzero;stroke:none"
   d="m 210.98,199.478 1.692,0 0,0.347 -1.692,0 0,2.207 -0.261,0 c -0.016,-1.128 -0.446,-2.281 -1.539,-2.316 l 0,-0.238 1.019,0 0,-3.336 c 0,-1.332 0.891,-1.61 1.528,-1.61 0.753,0 1.152,0.743 1.152,1.61 l 0,0.683 -0.266,0 0,-0.66 c 0,-0.863 -0.347,-1.367 -0.816,-1.367 -0.817,0 -0.817,1.113 -0.817,1.317 l 0,3.363 z" /><path
   inkscape:connector-curvature="0"
   id="path3301"
   style="fill:#008000;fill-opacity:1;fill-rule:nonzero;stroke:none"
   d="m 216.477,192.673 c -0.77,0 -0.915,0 -0.915,0.539 l 0,2.09 c 0.215,-0.301 0.708,-0.77 1.477,-0.77 1.379,0 2.594,1.165 2.594,2.711 0,1.524 -1.129,2.7 -2.438,2.7 -1.054,0 -1.621,-0.754 -1.656,-0.801 l 0,0.801 -1.668,-0.129 0,-0.348 c 0.84,0 0.91,-0.086 0.91,-0.613 l 0,-5.641 c 0,-0.539 -0.129,-0.539 -0.91,-0.539 l 0,-0.348 c 0.313,0.024 0.961,0.024 1.297,0.024 0.348,0 0.996,0 1.309,-0.024 l 0,0.348 z m -0.915,5.809 c 0,0.226 0,0.238 0.133,0.429 0.36,0.543 0.95,0.77 1.403,0.77 0.902,0 1.621,-1.094 1.621,-2.438 0,-1.425 -0.817,-2.472 -1.739,-2.472 -0.375,0 -0.722,0.156 -0.96,0.386 -0.278,0.274 -0.458,0.516 -0.458,0.852 l 0,2.473 z" /><path
   inkscape:connector-curvature="0"
   id="path3303"
   style="fill:#008000;fill-opacity:1;fill-rule:nonzero;stroke:none"
   d="m 223.711,199.814 0,-0.348 c 0.816,0 0.91,-0.086 0.91,-0.672 l 0,-2.148 c 0,-1.02 -0.539,-1.875 -1.437,-1.875 -0.985,0 -1.047,0.566 -1.047,1.203 l 0,3.969 -1.692,-0.129 0,-0.348 c 0.914,0 0.914,-0.039 0.914,-1.105 l 0,-1.801 c 0,-0.742 0,-1.176 0.36,-1.57 0.289,-0.313 0.777,-0.458 1.39,-0.458 0.203,0 0.59,0 0.996,0.348 0.348,0.277 0.54,0.731 0.54,0.731 l 0,-1.079 1.667,0.122 0,0.347 c -0.816,0 -0.91,0.082 -0.91,0.672 l 0,4.27 -1.691,-0.129 z" /><path
   inkscape:connector-curvature="0"
   id="path3305"
   style="fill:#008000;fill-opacity:1;fill-rule:nonzero;stroke:none"
   d="m 228.605,199.478 1.692,0 0,0.347 -1.692,0 0,2.207 -0.261,0 c -0.016,-1.128 -0.446,-2.281 -1.539,-2.316 l 0,-0.238 1.019,0 0,-3.336 c 0,-1.332 0.891,-1.61 1.528,-1.61 0.753,0 1.152,0.743 1.152,1.61 l 0,0.683 -0.266,0 0,-0.66 c 0,-0.863 -0.347,-1.367 -0.816,-1.367 -0.817,0 -0.817,1.113 -0.817,1.317 l 0,3.363 z" /><text
   xml:space="preserve"
   style="font-size:32px;font-style:normal;font-weight:normal;line-height:125%;letter-spacing:0px;word-spacing:0px;fill:#000000;fill-opacity:1;stroke:none;font-family:Bitstream Vera Sans"
   x="107.2152"
   y="-237.30309"
   id="text3309"
   sodipodi:linespacing="125%"
   transform="scale(1,-1)"><tspan
     sodipodi:role="line"
     id="tspan3311"
     x="107.2152"
     y="-237.30309"
     style="font-size:32px;font-style:italic;font-variant:normal;font-weight:bold;font-stretch:normal;text-align:start;line-height:125%;writing-mode:lr-tb;text-anchor:start;baseline-shift:sub;font-family:CMU Classical Serif;-inkscape-font-specification:CMU Classical Serif Bold Italic">x<tspan
   style="font-size:52.00042725%;baseline-shift:sub"
   id="tspan4219">1</tspan></tspan></text>







<text
   xml:space="preserve"
   style="font-size:32px;font-style:normal;font-weight:normal;line-height:125%;letter-spacing:0px;word-spacing:0px;fill:#000000;fill-opacity:1;stroke:none;font-family:Bitstream Vera Sans"
   x="101.89618"
   y="-227.90784"
   id="text4371"
   sodipodi:linespacing="125%"
   transform="scale(1,-1)"><tspan
     sodipodi:role="line"
     id="tspan4373"
     x="101.89618"
     y="-227.90784"
     style="font-size:25.60000038px;font-style:normal;font-variant:normal;font-weight:normal;font-stretch:normal;text-align:start;line-height:125%;writing-mode:lr-tb;text-anchor:start;font-family:cmr10;-inkscape-font-specification:cmr10" /></text>








<text
   xml:space="preserve"
   style="font-size:32px;font-style:normal;font-weight:normal;line-height:125%;letter-spacing:0px;word-spacing:0px;fill:#000000;fill-opacity:1;stroke:none;font-family:Bitstream Vera Sans"
   x="105.22452"
   y="-166.72816"
   id="text3309-7"
   sodipodi:linespacing="125%"
   transform="scale(1,-1)"><tspan
     sodipodi:role="line"
     id="tspan3311-4"
     x="105.22452"
     y="-166.72816"
     style="font-size:32px;font-style:italic;font-variant:normal;font-weight:bold;font-stretch:normal;text-align:start;line-height:125%;writing-mode:lr-tb;text-anchor:start;baseline-shift:sub;font-family:CMU Classical Serif;-inkscape-font-specification:CMU Classical Serif Bold Italic">x<tspan
   style="font-size:52.00042725%;baseline-shift:sub"
   id="tspan4221">2</tspan></tspan></text>
<text
   xml:space="preserve"
   style="font-size:32px;font-style:normal;font-weight:normal;line-height:125%;letter-spacing:0px;word-spacing:0px;fill:#000000;fill-opacity:1;stroke:none;font-family:Bitstream Vera Sans"
   x="105.48733"
   y="-94.858223"
   id="text3309-0"
   sodipodi:linespacing="125%"
   transform="scale(1,-1)"><tspan
     sodipodi:role="line"
     id="tspan3311-8"
     x="105.48733"
     y="-94.858223"
     style="font-size:32px;font-style:italic;font-variant:normal;font-weight:bold;font-stretch:normal;text-align:start;line-height:125%;writing-mode:lr-tb;text-anchor:start;baseline-shift:sub;font-family:CMU Classical Serif;-inkscape-font-specification:CMU Classical Serif Bold Italic">x<tspan
   style="font-size:52.00042725%;baseline-shift:sub"
   id="tspan4217">3</tspan></tspan></text>
<text
   xml:space="preserve"
   style="font-size:32px;font-style:normal;font-weight:normal;line-height:125%;letter-spacing:0px;word-spacing:0px;fill:#000000;fill-opacity:1;stroke:none;font-family:Bitstream Vera Sans"
   x="-50.401043"
   y="-194.82558"
   id="text3309-56"
   sodipodi:linespacing="125%"
   transform="scale(1,-1)"><tspan
     sodipodi:role="line"
     id="tspan3311-66"
     x="-50.401043"
     y="-194.82558"
     style="font-size:32px;font-style:italic;font-variant:normal;font-weight:bold;font-stretch:normal;text-align:start;line-height:125%;writing-mode:lr-tb;text-anchor:start;font-family:CMU Classical Serif;-inkscape-font-specification:CMU Classical Serif Bold Italic" /></text>
<text
   xml:space="preserve"
   style="font-size:40px;font-style:normal;font-weight:normal;line-height:125%;letter-spacing:0px;word-spacing:0px;fill:#000000;fill-opacity:1;stroke:none;font-family:Bitstream Vera Sans"
   x="-352"
   y="124.1275"
   id="text3254"
   sodipodi:linespacing="125%"
   transform="matrix(0.8,0,0,-0.8,0,271.302)"><tspan
     sodipodi:role="line"
     id="tspan3256"
     x="-352"
     y="124.1275" /></text>
<text
   xml:space="preserve"
   style="font-size:32px;font-style:normal;font-weight:normal;line-height:125%;letter-spacing:0px;word-spacing:0px;fill:#000000;fill-opacity:1;stroke:none;font-family:Bitstream Vera Sans"
   x="200.22208"
   y="-161.11104"
   id="text3309-0-8"
   sodipodi:linespacing="125%"
   transform="scale(1,-1)"><tspan
     sodipodi:role="line"
     id="tspan3311-8-7"
     x="200.22208"
     y="-161.11104"
     style="font-size:32px;font-style:italic;font-variant:normal;font-weight:bold;font-stretch:normal;text-align:start;line-height:125%;writing-mode:lr-tb;text-anchor:start;font-family:CMU Classical Serif;-inkscape-font-specification:CMU Classical Serif Bold Italic">y<tspan
   style="font-size:52.00042725%;baseline-shift:sub"
   id="tspan3269">1</tspan></tspan></text>
<text
   xml:space="preserve"
   style="font-size:32px;font-style:normal;font-weight:normal;line-height:125%;letter-spacing:0px;word-spacing:0px;fill:#000000;fill-opacity:1;stroke:none;font-family:Bitstream Vera Sans"
   x="-0.69409263"
   y="-245.30492"
   id="text4223"
   sodipodi:linespacing="125%"
   transform="matrix(0.81069289,-0.58547163,-0.58547163,-0.81069289,0,0)"><tspan
     sodipodi:role="line"
     id="tspan4225"
     x="-0.69409263"
     y="-245.30492"
     style="font-size:25.60000038px;font-style:italic;font-variant:normal;font-weight:500;font-stretch:normal;text-align:start;line-height:125%;writing-mode:lr-tb;text-anchor:start;font-family:CMU Serif;-inkscape-font-specification:CMU Serif Medium Italic">w<tspan
   style="font-size:13.31210995px;baseline-shift:sub"
   id="tspan4304">1</tspan></tspan></text>
<text
   xml:space="preserve"
   style="font-size:32px;font-style:normal;font-weight:normal;line-height:125%;letter-spacing:0px;word-spacing:0px;fill:#000000;fill-opacity:1;stroke:none;font-family:Bitstream Vera Sans"
   x="193.33104"
   y="13.30567"
   id="text4223-0"
   sodipodi:linespacing="125%"
   transform="matrix(0.78768753,0.61607496,0.61607496,-0.78768753,0,0)"><tspan
     sodipodi:role="line"
     id="tspan4225-7"
     x="193.33104"
     y="13.30567"
     style="font-size:25.60000038px;font-style:italic;font-variant:normal;font-weight:500;font-stretch:normal;text-align:start;line-height:125%;writing-mode:lr-tb;text-anchor:start;font-family:CMU Serif;-inkscape-font-specification:CMU Serif Medium Italic">w<tspan
   style="font-size:13.31210995px;baseline-shift:sub"
   id="tspan4308">3</tspan></tspan></text>
<text
   xml:space="preserve"
   style="font-size:32px;font-style:normal;font-weight:normal;line-height:125%;letter-spacing:0px;word-spacing:0px;fill:#000000;fill-opacity:1;stroke:none;font-family:Bitstream Vera Sans"
   x="148.66812"
   y="-151.01971"
   id="text4223-1"
   sodipodi:linespacing="125%"
   transform="scale(1,-1)"><tspan
     sodipodi:role="line"
     id="tspan4225-8"
     x="148.66812"
     y="-151.01971"
     style="font-size:25.60000038px;font-style:italic;font-variant:normal;font-weight:500;font-stretch:normal;text-align:start;line-height:125%;writing-mode:lr-tb;text-anchor:start;font-family:CMU Serif;-inkscape-font-specification:CMU Serif Medium Italic">w<tspan
   style="font-size:52.00042725%;baseline-shift:sub"
   id="tspan4306">2</tspan></tspan></text>
</g></svg>